<svg width="26" height="26" viewBox="0 0 26 26" fill="none" xmlns="http://www.w3.org/2000/svg">
<g clip-path="url(#clip0_1245_2009)">
<path d="M24.05 2.34323C23.441 1.83398 22.7273 1.46507 21.9597 1.26267C21.192 1.06028 20.3893 1.02937 19.6083 1.17214L15.4678 1.92398C14.5119 2.09952 13.6427 2.59134 13 3.32039C12.3556 2.59008 11.4839 2.09815 10.5257 1.92398L6.39167 1.17214C5.61075 1.02925 4.80798 1.05975 4.04016 1.26149C3.27234 1.46324 2.55825 1.83129 1.94845 2.3396C1.33864 2.84791 0.848018 3.48405 0.511314 4.20299C0.17461 4.92193 5.28802e-05 5.7061 0 6.49998L0 18.1924C6.22438e-05 19.4608 0.445225 20.6889 1.25789 21.6627C2.07056 22.6365 3.1992 23.2943 4.44708 23.5213L11.2569 24.7596C12.4095 24.969 13.5905 24.969 14.7431 24.7596L21.5583 23.5213C22.8052 23.2931 23.9326 22.6349 24.7442 21.6612C25.5558 20.6875 26.0002 19.46 26 18.1924V6.49998C26.0005 5.70638 25.826 4.92243 25.489 4.20395C25.1519 3.48548 24.6606 2.85016 24.05 2.34323ZM11.9167 22.672C11.8257 22.659 11.7347 22.6438 11.6437 22.6276L4.83492 21.3904C4.08608 21.2542 3.40881 20.8594 2.9212 20.275C2.43358 19.6906 2.16655 18.9535 2.16667 18.1924V6.49998C2.16667 5.63802 2.50908 4.81137 3.11857 4.20188C3.72806 3.59239 4.55471 3.24998 5.41667 3.24998C5.61285 3.25045 5.80861 3.26821 6.00167 3.30306L10.14 4.06139C10.6379 4.15251 11.0882 4.41507 11.4127 4.80352C11.7373 5.19198 11.9156 5.6818 11.9167 6.18798V22.672ZM23.8333 18.1924C23.8334 18.9535 23.5664 19.6906 23.0788 20.275C22.5912 20.8594 21.9139 21.2542 21.1651 21.3904L14.3563 22.6276C14.2653 22.6438 14.1743 22.659 14.0833 22.672V6.18798C14.0833 5.68056 14.2613 5.1892 14.5864 4.79959C14.9114 4.40997 15.3629 4.14681 15.8622 4.05598L20.0016 3.29764C20.4704 3.21235 20.9522 3.23118 21.4129 3.3528C21.8735 3.47441 22.3019 3.69583 22.6675 4.00138C23.0331 4.30693 23.327 4.68914 23.5285 5.12092C23.73 5.5527 23.834 6.0235 23.8333 6.49998V18.1924Z" fill="white"/>
</g>
<defs>
<clipPath id="clip0_1245_2009">
<rect width="26" height="26" fill="white"/>
</clipPath>
</defs>
</svg>
