<svg width="99" height="99" viewBox="0 0 99 99" fill="none" xmlns="http://www.w3.org/2000/svg">
<mask id="mask0_1268_3243" style="mask-type:alpha" maskUnits="userSpaceOnUse" x="0" y="0" width="99" height="99">
<circle cx="49.3377" cy="49.3377" r="49.3377" fill="#D9D9D9"/>
</mask>
<g mask="url(#mask0_1268_3243)">
<path d="M76.3854 90.0706C76.159 90.2324 75.9001 90.3941 75.6737 90.5559C75.4148 90.7177 75.1884 90.8794 74.9296 91.0088C74.7031 91.1382 74.509 91.2677 74.2825 91.3971C74.2501 91.4294 74.2178 91.4294 74.1854 91.4618C73.4413 91.9147 72.6648 92.3353 71.8884 92.7235C71.6619 92.853 71.4031 92.9824 71.1766 93.0794C71.1766 93.0794 71.1443 93.1118 71.1119 93.1118C70.8531 93.2412 70.5942 93.3706 70.3354 93.5C69.8178 93.7588 69.2678 93.9853 68.7501 94.2118C68.4913 94.3412 68.2001 94.4383 67.9413 94.5353C67.6825 94.6324 67.3913 94.7618 67.1325 94.8588C66.8737 94.9559 66.5825 95.0853 66.3237 95.1824C66.3237 95.1824 66.3237 95.1824 66.2913 95.1824C66.0325 95.2794 65.7413 95.3765 65.4825 95.4735C64.9001 95.6677 64.2854 95.8618 63.7031 96.0559C63.509 96.1206 63.2825 96.1853 63.0884 96.25C62.4737 96.4441 61.859 96.6059 61.2443 96.7353C61.0178 96.8 60.7913 96.8324 60.5325 96.8971C59.9501 97.0265 59.3354 97.1559 58.7531 97.2853C58.6237 97.3177 58.5266 97.3177 58.3972 97.35C58.2031 97.3824 57.9766 97.4147 57.7825 97.4471C57.4913 97.4794 57.2325 97.5441 56.9413 97.5765C56.8119 97.6088 56.6825 97.6088 56.5531 97.6412C56.3913 97.6735 56.1972 97.7059 56.0031 97.7059C55.4854 97.7706 54.9354 97.8353 54.4178 97.9C54.256 97.9324 54.0619 97.9324 53.9001 97.9647H53.8678C53.6413 97.9971 53.4148 97.9971 53.1884 98.0294C52.9619 98.0618 52.7354 98.0618 52.509 98.0618C52.3796 98.0618 52.2178 98.0941 52.0884 98.0941C51.8295 98.0941 51.6031 98.1265 51.3766 98.1265C51.0531 98.1265 50.7619 98.1588 50.4384 98.1588C50.1148 98.1588 49.8237 98.1588 49.5001 98.1588C49.2737 98.1588 49.0472 98.1588 48.8207 98.1588C35.1678 97.9647 22.906 92.1735 14.1384 82.9853C14.1384 82.9853 14.1384 82.953 14.106 82.953C13.1354 82.0794 13.9766 77.4206 17.8913 74.4765C22.809 70.7559 34.5854 68.4265 34.5854 68.4265C34.5854 68.4265 39.1472 67.6824 56.0678 71.2088C65.9678 73.2794 73.506 76.2882 77.7119 84.4412C78.5854 86.1235 79.459 88.7118 76.3854 90.0706Z" fill="#000026"/>
<path d="M56.1648 70.853C62.3766 72.1147 69.0089 73.4735 74.1207 77.5824C75.8354 78.9735 76.9677 81.0118 77.906 82.9853C78.3589 83.9559 78.8118 84.9588 79.1677 86.0265C79.3618 86.7382 79.653 87.5471 79.4913 88.3883C79.4589 88.6147 79.2648 88.9059 79.103 89.0677C78.3589 89.8118 77.5501 90.2647 76.7413 90.8471C71.9854 94.1471 66.5177 96.4765 60.856 97.7059C48.2383 100.456 34.5854 98.3206 23.4883 91.6882C19.8001 89.4559 16.403 86.7383 13.4913 83.5353C13.1677 83.1471 13.1677 82.5 13.1677 82.0794C13.2001 81.1088 13.4589 80.1706 13.7824 79.2971C14.5589 77.2912 15.5618 75.2853 17.2765 73.8941C18.506 73.053 19.8324 72.3412 21.1913 71.7588C25.4618 69.9471 29.9589 68.6853 34.5854 68.1677C34.9736 68.1353 35.0383 68.6853 34.6501 68.75C30.2177 69.6559 25.8177 71.0147 21.7089 72.8588C20.2207 73.603 18.6354 74.25 17.4383 75.4147C16.306 76.6441 15.4971 78.1647 14.8501 79.7177C14.4295 80.6559 14.1383 82.1441 14.2677 82.8883C16.306 85.3147 18.7001 87.45 21.2883 89.2941C35.4589 99.1941 56.9736 99.8412 72.0501 91.5912C73.4089 90.8471 74.7354 90.0059 75.9971 89.1324C76.6118 88.7118 77.2589 88.3559 77.7442 87.8706C77.7766 87.8383 77.7442 87.8706 77.7442 87.903C77.7442 87.9353 77.7118 87.9677 77.7118 87.9677C77.7442 87.5794 77.6148 87.0618 77.453 86.5441C76.8707 84.6677 75.9324 82.6941 74.9295 80.9794C73.3442 78.4235 70.6589 76.8059 67.9413 75.5118C66.0648 74.6382 64.0913 73.9588 62.0854 73.3118C60.0795 72.6647 58.0413 72.1147 56.003 71.6294C55.4854 71.5 55.6471 70.7559 56.1648 70.853Z" fill="white"/>
<path d="M59.2056 79.4588C58.5262 82.7912 54.1262 84.7971 46.7174 81.7883C39.0174 78.6824 35.685 71.2735 34.8439 69.0735C39.4056 60.5324 36.235 54.6118 36.235 54.6118C46.7498 53.7059 55.938 66 55.938 66L57.3615 72.0824C57.4909 72.6 57.7498 73.053 58.138 73.3765C58.8174 74.5735 59.6262 77.3235 59.2056 79.4588Z" fill="#000026"/>
<path d="M34.6823 69.1706C35.297 68.2324 35.6852 67.1324 35.9441 66.0647C36.4294 63.8324 36.5911 61.5677 36.6235 59.303V58.4618C36.5264 57.6206 36.2352 56.7471 35.9117 55.9706C35.4911 54.9353 37.0117 54.2883 37.497 55.3235C37.5617 55.453 37.5617 55.6794 37.5617 55.8088C37.6588 60.2088 37.8529 65.8706 35.0705 69.5265C34.8764 69.7206 34.4882 69.4294 34.6823 69.1706Z" fill="white"/>
<path d="M56.294 65.9353C56.7793 66.2265 56.9411 66.6148 57.0058 67.003C57.1999 67.7795 57.1352 68.6206 57.3293 69.4295C57.4911 70.2059 57.9764 70.95 58.1058 71.7589C58.2675 72.6 58.7528 74.3795 58.947 75.253C59.0117 75.4471 58.8822 75.6736 58.6558 75.7059C58.5264 75.7383 58.4293 75.7059 58.3322 75.6412C57.9117 75.2853 57.7175 74.9295 57.4587 74.4765C57.0381 73.7 56.747 72.9883 56.4881 72.1147C56.2617 71.3383 56.3587 70.4971 56.1646 69.6883C56.0028 68.9118 55.5499 68.1677 55.3881 67.3589C55.2911 66.9706 55.2587 66.55 55.5499 66.0647C55.744 65.8706 56.0675 65.8059 56.294 65.9353Z" fill="white"/>
<path d="M58.6235 74.4765C52.4441 74.153 47.397 72.2118 42.4794 63.4441C46.6205 67.1 51.5058 68.4912 56.65 69.1382L57.3294 72.1147C57.4588 72.6324 58.2352 74.153 58.6235 74.4765Z" fill="white"/>
<path d="M58.3648 73.2794C59.4648 75.35 60.1119 77.9383 59.4325 80.2353C58.9148 81.853 57.4266 83.05 55.8089 83.503C52.056 84.5059 47.7207 82.9206 44.3884 81.1412C40.2795 78.8441 37.2384 74.9941 35.2972 70.7883C35.1678 70.4647 35.6207 70.2059 35.8148 70.5294C36.4942 71.8883 37.2707 73.2147 38.1442 74.4118C39.0178 75.6412 40.0207 76.7735 41.1531 77.7765C44.4531 80.753 48.9178 82.5971 53.3825 82.5971C57.9766 82.4677 59.7237 80.0412 58.656 75.5765C58.4942 74.8647 58.2354 74.1206 57.8795 73.5059C57.6854 73.2471 58.1707 72.9559 58.3648 73.2794Z" fill="white"/>
<path d="M70.8853 34.4235C71.4677 37.1412 71.7589 39.3412 70.1736 46.5882C68.6206 53.803 71.6294 61.0824 63.9941 67.7147C58.85 72.1794 49.8559 73.0206 42.6736 68.1353C40.2471 66.4853 39.6 58.7853 37.6912 55.8412C36.8824 54.6118 36.3971 56.5853 34.553 54.5471C31.9971 51.7647 28.9236 46.1677 30.4441 36.2677C32.903 20.2206 45.6177 18.3441 55.0324 20.1235C64.4794 21.903 69.3324 27.2735 70.8853 34.4235Z" fill="#000026"/>
<path d="M36.1382 57.3941C35.3941 56.1647 34.4558 55.0971 33.5823 53.9647C32.2882 52.2177 31.3176 50.2118 30.6705 48.1412C27.8882 39.2765 29.3764 27.7265 37.5941 22.1941C45.197 17.05 59.7235 18.603 66.3882 24.8147C69.7205 27.8235 71.5646 32.1912 71.9529 36.5912C72.147 39.5353 71.4352 42.3824 70.8205 45.2294C70.1088 48.0118 69.947 50.7941 69.947 53.6735C69.9146 56.553 69.7852 59.5618 68.6852 62.2794C67.0029 66.4206 63.4764 69.7853 59.2382 71.2088C53.6735 73.15 47.1058 72.05 42.5441 68.3294C42.3499 68.1677 42.5441 67.9088 42.7705 68.0059C48.7558 71.403 56.6176 71.9853 62.4411 68.0706C65.9029 65.7412 68.297 62.053 68.847 57.9118C69.2999 55.0971 69.1705 52.25 69.4294 49.403C69.5264 48.1412 69.8823 46.3941 70.1411 45.1324C70.5294 43.0294 70.7882 40.9265 70.7558 38.8235C70.7235 36.753 70.2705 34.7147 69.6558 32.7412C67.5205 25.7206 61.4058 21.5794 54.3529 20.4471C43.8058 18.603 34.5852 22.5177 31.8352 33.4853C30.6382 38.8559 29.6999 44.7765 31.9647 49.9853C32.7735 51.9588 34.0999 53.6412 35.6205 55.0971L37.1088 56.6824C37.7558 57.3294 36.6558 58.1706 36.1382 57.3941Z" fill="white"/>
<path d="M39.9556 47.1059C39.9556 47.1059 38.9527 42.2529 34.2292 42.8353C30.1527 43.3529 28.7292 53.1235 37.9821 55.8412" fill="#000026"/>
<path d="M37.5617 51.6029C36.8175 51.1823 36.2999 50.4706 36.2675 49.597C36.2999 48.95 36.397 48.2059 36.2352 47.5588C36.1381 46.9441 35.4911 46.7823 35.0058 46.8147C34.4881 46.9117 34.1646 47.5588 34.0675 48.0765C34.0675 48.1088 34.0352 48.2059 34.0352 48.2382C34.0028 48.4 33.744 48.4 33.6793 48.2382C33.2587 46.9765 34.197 45.5853 35.5558 45.747C37.4646 45.8764 37.7234 47.8823 37.3675 49.4029C37.1734 50.05 37.4323 50.6323 37.7881 51.1823L37.8528 51.2794C38.0146 51.4735 37.7558 51.7323 37.5617 51.6029Z" fill="white"/>
<path d="M63.444 43.6765C63.9293 45.9735 64.8352 48.1088 65.9675 50.1147C66.9705 52.5735 64.3822 54.9029 62.0852 54.8059C61.8263 54.8059 61.794 54.45 62.0205 54.3853C63.4763 53.9324 64.8028 52.9618 65.0293 51.4735C65.1264 51.0206 64.9969 50.6324 64.7705 50.2441C63.7028 48.2382 63.0558 45.9412 63.2175 43.6765C63.2175 43.5147 63.444 43.5147 63.444 43.6765Z" fill="white"/>
<path d="M39.7941 47.1383C39.0499 45.2294 37.4323 43.4177 35.2646 43.45C35.0705 43.4177 34.747 43.4824 34.5529 43.4824C34.0029 43.5147 33.5499 43.7088 33.1294 44.0971C31.0588 46.1677 31.4146 49.8235 33.097 52.1206C33.6794 52.9294 34.4235 53.6412 35.2646 54.2235C36.1058 54.8059 37.0441 55.2588 38.047 55.6471C38.2735 55.7118 38.1764 56.0677 37.9499 56.0353C35.7823 55.5824 33.7117 54.5147 32.2882 52.7353C30.0882 50.0824 29.6352 45.65 32.2558 43.0618C32.8382 42.5441 33.647 42.1559 34.4558 42.1559C34.7146 42.1559 35.1029 42.0912 35.3617 42.1559C36.7205 42.2206 38.0146 42.9 38.8558 43.9677C39.5999 44.8735 40.0205 45.9735 40.1499 47.0735C40.1499 47.2677 39.8588 47.3324 39.7941 47.1383Z" fill="white"/>
<path d="M93.2411 27.2735C112.879 65.0941 78.3588 107.768 37.2058 97.35C18.7323 92.7559 3.88231 76.7412 0.808778 57.9441C-2.68534 39.2441 5.75878 19.1529 21.547 8.57353C43.1911 -6.30882 73.1823 -1.35882 88.6794 19.9294C88.7764 20.0265 88.7441 20.1882 88.6147 20.2853C88.5176 20.3824 88.3558 20.35 88.2588 20.2206C86.1235 17.4706 83.697 14.9794 81.0441 12.7471C76.6764 9.02647 71.5647 6.11471 66.1617 4.14118C38.6617 -5.82353 8.47642 10.7412 2.45878 39.5029C-4.33534 71.7265 23.0676 101.394 55.7441 96.9618C80.947 93.7912 99.6794 70.5294 97.6088 45.2294C97.1558 39.1147 95.5382 33.0647 92.8529 27.5C92.7882 27.4029 92.8529 27.2735 92.95 27.2088C93.047 27.1441 93.1764 27.1765 93.2411 27.2735Z" fill="white"/>
</g>
</svg>
