<svg width="26" height="25" viewBox="0 0 26 25" fill="none" xmlns="http://www.w3.org/2000/svg">
<g clip-path="url(#clip0_1247_1975)">
<path d="M20.2554 0H5.67205C4.29122 0.00165402 2.96742 0.550919 1.99103 1.52731C1.01463 2.50371 0.465369 3.82751 0.463715 5.20833L0.463715 19.7917C0.465369 21.1725 1.01463 22.4963 1.99103 23.4727C2.96742 24.4491 4.29122 24.9983 5.67205 25H20.2554C21.6362 24.9983 22.96 24.4491 23.9364 23.4727C24.9128 22.4963 25.4621 21.1725 25.4637 19.7917V5.20833C25.4621 3.82751 24.9128 2.50371 23.9364 1.52731C22.96 0.550919 21.6362 0.00165402 20.2554 0V0ZM7.75538 22.9167V21.875C7.75538 20.4937 8.30411 19.1689 9.28087 18.1922C10.2576 17.2154 11.5824 16.6667 12.9637 16.6667C14.345 16.6667 15.6698 17.2154 16.6466 18.1922C17.6233 19.1689 18.172 20.4937 18.172 21.875V22.9167H7.75538ZM23.3804 19.7917C23.3804 20.6205 23.0511 21.4153 22.4651 22.0014C21.879 22.5874 21.0842 22.9167 20.2554 22.9167V21.875C20.2554 19.9411 19.4872 18.0865 18.1197 16.719C16.7522 15.3516 14.8976 14.5833 12.9637 14.5833C11.0298 14.5833 9.17518 15.3516 7.80773 16.719C6.44027 18.0865 5.67205 19.9411 5.67205 21.875V22.9167C4.84325 22.9167 4.04839 22.5874 3.46234 22.0014C2.87629 21.4153 2.54705 20.6205 2.54705 19.7917V5.20833C2.54705 4.37953 2.87629 3.58468 3.46234 2.99862C4.04839 2.41257 4.84325 2.08333 5.67205 2.08333H20.2554C21.0842 2.08333 21.879 2.41257 22.4651 2.99862C23.0511 3.58468 23.3804 4.37953 23.3804 5.20833V19.7917Z" fill="white"/>
<path d="M12.9638 4.16699C12.1397 4.16699 11.3341 4.41136 10.6489 4.8692C9.96374 5.32704 9.42969 5.97779 9.11432 6.73914C8.79895 7.5005 8.71644 8.33828 8.87721 9.14654C9.03798 9.95479 9.43482 10.6972 10.0175 11.2799C10.6003 11.8627 11.3427 12.2595 12.1509 12.4203C12.9592 12.581 13.797 12.4985 14.5583 12.1832C15.3197 11.8678 15.9704 11.3337 16.4283 10.6485C16.8861 9.96333 17.1305 9.15775 17.1305 8.33366C17.1305 7.22859 16.6915 6.16878 15.9101 5.38738C15.1287 4.60598 14.0689 4.16699 12.9638 4.16699ZM12.9638 10.417C12.5518 10.417 12.149 10.2948 11.8064 10.0659C11.4638 9.83697 11.1968 9.5116 11.0391 9.13092C10.8814 8.75024 10.8401 8.33135 10.9205 7.92722C11.0009 7.52309 11.1993 7.15188 11.4907 6.86052C11.782 6.56916 12.1533 6.37074 12.5574 6.29036C12.9615 6.20997 13.3804 6.25123 13.7611 6.40891C14.1418 6.56659 14.4671 6.83362 14.696 7.17622C14.925 7.51882 15.0472 7.92161 15.0472 8.33366C15.0472 8.88619 14.8277 9.4161 14.437 9.8068C14.0463 10.1975 13.5164 10.417 12.9638 10.417Z" fill="white"/>
</g>
<defs>
<clipPath id="clip0_1247_1975">
<rect width="25" height="25" fill="white" transform="translate(0.463715)"/>
</clipPath>
</defs>
</svg>
