<svg width="41" height="41" viewBox="0 0 41 41" fill="none" xmlns="http://www.w3.org/2000/svg">
<g clip-path="url(#clip0_1245_1992)">
<path d="M20.5 0C16.4455 0 12.482 1.2023 9.11082 3.45487C5.73961 5.70744 3.11208 8.90911 1.56048 12.655C0.00888236 16.4009 -0.397086 20.5227 0.393911 24.4994C1.18491 28.476 3.13734 32.1287 6.00432 34.9957C8.8713 37.8627 12.524 39.8151 16.5007 40.6061C20.4773 41.3971 24.5991 40.9911 28.345 39.4395C32.0909 37.8879 35.2926 35.2604 37.5451 31.8892C39.7977 28.518 41 24.5545 41 20.5C40.9941 15.0649 38.8324 9.85403 34.9892 6.0108C31.146 2.16758 25.9351 0.00587851 20.5 0V0ZM37.5833 20.5C37.5854 23.8478 36.5976 27.1215 34.7441 29.9095L32.7078 27.8715C32.5481 27.7114 32.4584 27.4945 32.4583 27.2684V25.625C32.4583 24.2658 31.9184 22.9622 30.9573 22.0011C29.9961 21.04 28.6926 20.5 27.3333 20.5H22.2083C21.7553 20.5 21.3207 20.32 21.0004 19.9996C20.68 19.6793 20.5 19.2447 20.5 18.7917V17.9375C20.5 17.711 20.59 17.4937 20.7502 17.3335C20.9104 17.1733 21.1276 17.0833 21.3542 17.0833C22.4869 17.0833 23.5732 16.6334 24.3741 15.8324C25.175 15.0315 25.625 13.9452 25.625 12.8125V11.1042C25.625 10.8776 25.715 10.6604 25.8752 10.5002C26.0354 10.34 26.2526 10.25 26.4792 10.25H28.835C29.9666 10.2468 31.0512 9.79744 31.8536 8.9995L32.4976 8.35546C34.1089 9.94093 35.3884 11.8313 36.2616 13.9164C37.1347 16.0014 37.5841 18.2395 37.5833 20.5ZM3.50038 22.1451L8.8953 27.54C9.37005 28.0179 9.93496 28.3966 10.5572 28.6544C11.1795 28.9122 11.8468 29.0438 12.5204 29.0417H17.0833C17.5364 29.0417 17.9709 29.2217 18.2913 29.542C18.6117 29.8624 18.7917 30.2969 18.7917 30.75V37.4962C14.8628 37.0952 11.1937 35.3474 8.40659 32.5494C5.61951 29.7514 3.88609 26.0755 3.50038 22.1451V22.1451ZM22.2083 37.4962V30.75C22.2083 29.3908 21.6684 28.0872 20.7073 27.1261C19.7461 26.165 18.4426 25.625 17.0833 25.625H12.5204C12.2958 25.6252 12.0733 25.5811 11.8658 25.4952C11.6582 25.4093 11.4697 25.2833 11.3109 25.1245L3.69513 17.5087C4.18402 14.7296 5.35519 12.1153 7.10356 9.90044C8.85193 7.68557 11.1228 5.93938 13.7124 4.81855C16.3021 3.69772 19.1295 3.23732 21.9409 3.47865C24.7524 3.71998 27.4599 4.65549 29.8207 6.20125L29.438 6.58392C29.2772 6.7425 29.0608 6.832 28.835 6.83333H26.4792C25.3465 6.83333 24.2602 7.2833 23.4592 8.08423C22.6583 8.88517 22.2083 9.97147 22.2083 11.1042V12.8125C22.2083 13.039 22.1184 13.2563 21.9582 13.4165C21.798 13.5767 21.5807 13.6667 21.3542 13.6667C20.2215 13.6667 19.1352 14.1166 18.3342 14.9176C17.5333 15.7185 17.0833 16.8048 17.0833 17.9375V18.7917C17.0833 20.1509 17.6233 21.4545 18.5844 22.4156C19.5455 23.3767 20.8491 23.9167 22.2083 23.9167H27.3333C27.7864 23.9167 28.2209 24.0967 28.5413 24.417C28.8617 24.7374 29.0417 25.1719 29.0417 25.625V27.2684C29.0449 28.4 29.4942 29.4847 30.2922 30.287L32.5762 32.5711C29.7941 35.3628 26.13 37.1034 22.2083 37.4962V37.4962Z" fill="#374957"/>
</g>
<defs>
<clipPath id="clip0_1245_1992">
<rect width="41" height="41" fill="white"/>
</clipPath>
</defs>
</svg>
