<svg width="39" height="39" viewBox="0 0 39 39" fill="none" xmlns="http://www.w3.org/2000/svg">
<g clip-path="url(#clip0_1245_1991)">
<path d="M32.5002 13C30.7763 13 29.123 12.3152 27.904 11.0962C26.685 9.87721 26.0002 8.22391 26.0002 6.5C26.0002 4.77609 26.685 3.12279 27.904 1.90381C29.123 0.68482 30.7763 0 32.5002 0C34.2241 0 35.8774 0.68482 37.0964 1.90381C38.3153 3.12279 39.0002 4.77609 39.0002 6.5C39.0002 8.22391 38.3153 9.87721 37.0964 11.0962C35.8774 12.3152 34.2241 13 32.5002 13ZM32.5002 3.25C31.6382 3.25 30.8116 3.59241 30.2021 4.2019C29.5926 4.8114 29.2502 5.63805 29.2502 6.5C29.2502 7.36195 29.5926 8.1886 30.2021 8.7981C30.8116 9.40759 31.6382 9.75 32.5002 9.75C33.3621 9.75 34.1888 9.40759 34.7983 8.7981C35.4078 8.1886 35.7502 7.36195 35.7502 6.5C35.7502 5.63805 35.4078 4.8114 34.7983 4.2019C34.1888 3.59241 33.3621 3.25 32.5002 3.25ZM34.8597 39H20.4573C19.7288 39.0064 19.0114 38.8205 18.3777 38.461C17.744 38.1015 17.2164 37.5811 16.8482 36.9525C16.4873 36.3467 16.2929 35.6563 16.2846 34.9511C16.2763 34.246 16.4545 33.5512 16.801 32.9371L24.0095 20.0038C24.3807 19.3627 24.9139 18.8306 25.5556 18.4606C26.1974 18.0907 26.9251 17.8959 27.6658 17.8959C28.4065 17.8959 29.1342 18.0907 29.776 18.4606C30.4177 18.8306 30.9509 19.3627 31.322 20.0038L38.5127 32.9274C38.8599 33.5424 39.0385 34.2382 39.0306 34.9444C39.0226 35.6507 38.8282 36.3422 38.4672 36.9493C38.0991 37.5779 37.5718 38.0985 36.9385 38.4585C36.3052 38.8185 35.5882 39.0053 34.8597 39ZM27.6625 21.125C27.4982 21.1211 27.3359 21.1618 27.1928 21.2428C27.0498 21.3238 26.9313 21.442 26.85 21.5849L19.6415 34.5183C19.5719 34.6383 19.536 34.7749 19.5377 34.9137C19.5394 35.0524 19.5787 35.1881 19.6513 35.3064C19.7345 35.4464 19.8538 35.5614 19.9968 35.6395C20.1397 35.7175 20.301 35.7557 20.4638 35.75H34.8662C35.0292 35.7548 35.1905 35.7159 35.3334 35.6374C35.4762 35.5588 35.5955 35.4434 35.6787 35.3031C35.75 35.1829 35.7877 35.0456 35.7877 34.9058C35.7877 34.766 35.75 34.6287 35.6787 34.5085L28.4767 21.5865C28.3958 21.4428 28.2772 21.3239 28.1337 21.2426C27.9903 21.1613 27.8274 21.1206 27.6625 21.125V21.125ZM13.0002 37.375C13.0002 36.944 12.829 36.5307 12.5242 36.226C12.2195 35.9212 11.8061 35.75 11.3752 35.75H5.44392C5.06389 35.7498 4.69045 35.6508 4.36023 35.4627C4.03002 35.2746 3.75438 35.0038 3.56035 34.6771C3.36632 34.3503 3.26058 33.9787 3.25349 33.5988C3.2464 33.2188 3.33821 32.8435 3.51992 32.5098L14.3294 12.5222C14.5143 12.1739 14.791 11.8828 15.1297 11.6805C15.4683 11.4783 15.8558 11.3726 16.2502 11.375V11.375C16.6449 11.3718 17.033 11.4771 17.372 11.6794C17.7111 11.8817 17.988 12.1733 18.1725 12.5222L20.1664 16.2061C20.268 16.3939 20.4056 16.5599 20.5713 16.6945C20.737 16.8291 20.9276 16.9298 21.1322 16.9907C21.3368 17.0517 21.5514 17.0718 21.7638 17.0498C21.9762 17.0278 22.1821 16.9642 22.3699 16.8626C22.5577 16.761 22.7237 16.6235 22.8583 16.4578C22.9929 16.2921 23.0936 16.1015 23.1545 15.8968C23.2155 15.6922 23.2356 15.4776 23.2136 15.2652C23.1916 15.0529 23.128 14.8469 23.0264 14.6591L21.0342 10.9769C20.5685 10.1144 19.8782 9.39393 19.0364 8.89179C18.1947 8.38965 17.2328 8.12454 16.2526 8.12454C15.2724 8.12454 14.3105 8.38965 13.4688 8.89179C12.627 9.39393 11.9367 10.1144 11.471 10.9769L0.659916 30.9644C0.211585 31.7934 -0.0138875 32.7246 0.00555329 33.6669C0.024994 34.6093 0.288682 35.5304 0.770826 36.3402C1.25297 37.1501 1.93706 37.8209 2.75618 38.2871C3.5753 38.7534 4.50141 38.999 5.44392 39H11.3752C11.8061 39 12.2195 38.8288 12.5242 38.524C12.829 38.2193 13.0002 37.806 13.0002 37.375Z" fill="#374957"/>
</g>
<defs>
<clipPath id="clip0_1245_1991">
<rect width="39" height="39" fill="white"/>
</clipPath>
</defs>
</svg>
