<svg width="42" height="42" viewBox="0 0 42 42" fill="none" xmlns="http://www.w3.org/2000/svg">
<g clip-path="url(#clip0_1245_1995)">
<path d="M25.4582 13.5917C25.3083 13.4299 25.1917 13.2403 25.115 13.0335C25.0384 12.8267 25.0033 12.6068 25.0116 12.3864C25.0199 12.166 25.0716 11.9494 25.1636 11.749C25.2557 11.5486 25.3863 11.3682 25.548 11.2183C25.7098 11.0684 25.8995 10.9517 26.1063 10.8751C26.3131 10.7985 26.5329 10.7633 26.7533 10.7717C26.9737 10.78 27.1903 10.8317 27.3907 10.9237C27.5911 11.0157 27.7715 11.1464 27.9214 11.3081L30.9226 14.548L31.2506 2.49988C31.2627 2.05491 31.4511 1.63297 31.7743 1.32689C32.0975 1.02081 32.5291 0.855662 32.974 0.867775C33.419 0.879888 33.841 1.06827 34.147 1.39148C34.4531 1.71469 34.6183 2.14625 34.6062 2.59123L34.2782 14.6394L37.4512 11.5675C37.7714 11.2578 38.2014 11.088 38.6468 11.0954C39.0921 11.1028 39.5163 11.2868 39.826 11.607C40.1356 11.9271 40.3055 12.3572 40.2981 12.8025C40.2907 13.2479 40.1066 13.672 39.7865 13.9817L35.4495 18.1788C34.6536 18.9362 33.5902 19.3479 32.4918 19.3239C32.4812 19.3262 32.4703 19.3259 32.4599 19.3231C31.9175 19.3084 31.3834 19.1869 30.888 18.9654C30.3927 18.7439 29.946 18.4268 29.5735 18.0322L25.4582 13.5917ZM39.1828 19.5061C38.7378 19.494 38.3062 19.6591 37.983 19.9652C37.6598 20.2713 37.4714 20.6932 37.4593 21.1382L37.1396 32.8826C37.1033 34.2176 36.5381 35.4834 35.5685 36.4016C34.5989 37.3199 33.3042 37.8153 31.9693 37.779L8.48031 37.1396C7.14538 37.1032 5.87957 36.5381 4.96133 35.5684C4.04309 34.5988 3.54764 33.3041 3.58398 31.9692L4.03746 15.3105L14.589 26.4526C16.1222 28.0552 18.2249 28.9893 20.4418 29.0528C22.6587 29.1163 24.8114 28.304 26.4337 26.7919L29.6749 23.8092C29.8396 23.6606 29.9732 23.4808 30.068 23.2802C30.1628 23.0797 30.217 22.8623 30.2273 22.6407C30.2375 22.4191 30.2038 22.1977 30.128 21.9892C30.0522 21.7807 29.9358 21.5894 29.7855 21.4261C29.6353 21.2629 29.4542 21.1311 29.2527 21.0383C29.0512 20.9455 28.8333 20.8936 28.6116 20.8856C28.3899 20.8775 28.1688 20.9135 27.9611 20.9914C27.7534 21.0693 27.5632 21.1877 27.4015 21.3395L24.1432 24.3386C23.1591 25.2268 21.8709 25.7021 20.5458 25.6661C19.2207 25.63 17.9603 25.0853 17.026 24.1448L4.756 11.1812C5.20213 10.385 5.85696 9.72545 6.65001 9.27368C7.44306 8.8219 8.34431 8.59496 9.25674 8.61727L21.0012 8.93698C21.4462 8.94909 21.8778 8.78394 22.201 8.47786C22.5242 8.17178 22.7126 7.74984 22.7247 7.30487C22.7368 6.85989 22.5716 6.42833 22.2656 6.10512C21.9595 5.78191 21.5375 5.59353 21.0926 5.58141L9.34808 5.26171C7.12395 5.20383 4.96766 6.03047 3.35221 7.56031C1.73675 9.09015 0.79402 11.1983 0.730812 13.4223L0.228416 31.8779C0.170537 34.102 0.997179 36.2583 2.52702 37.8737C4.05686 39.4892 6.16498 40.4319 8.38896 40.4951L31.8779 41.1345C34.102 41.1924 36.2583 40.3658 37.8738 38.8359C39.4893 37.3061 40.432 35.198 40.4952 32.974L40.8149 21.2295C40.827 20.7845 40.6619 20.353 40.3558 20.0298C40.0497 19.7066 39.6278 19.5182 39.1828 19.5061Z" fill="#374957"/>
</g>
<defs>
<clipPath id="clip0_1245_1995">
<rect width="40.2817" height="40.2817" fill="white" transform="translate(1.09619) rotate(1.55931)"/>
</clipPath>
</defs>
</svg>
