<svg width="40" height="40" viewBox="0 0 40 40" fill="none" xmlns="http://www.w3.org/2000/svg">
<g clip-path="url(#clip0_1245_1990)">
<path d="M37 3.60495C36.0631 2.8215 34.9651 2.25394 33.7841 1.94256C32.6031 1.63119 31.3681 1.58364 30.1667 1.80329L23.7967 2.95995C22.326 3.23003 20.9888 3.98666 20 5.10829C19.0086 3.98473 17.6676 3.22792 16.1933 2.95995L9.83333 1.80329C8.63193 1.58344 7.39689 1.63037 6.21563 1.94075C5.03437 2.25112 3.93578 2.81736 2.99761 3.59938C2.05944 4.38139 1.30464 5.36007 0.786637 6.46613C0.26863 7.57219 8.13541e-05 8.7786 0 9.99995L0 27.9883C9.57597e-05 29.9396 0.684961 31.829 1.93522 33.3272C3.18548 34.8254 4.92185 35.8373 6.84167 36.1866L17.3183 38.0916C19.0916 38.4138 20.9084 38.4138 22.6817 38.0916L33.1667 36.1866C35.085 35.8356 36.8194 34.8229 38.068 33.3249C39.3166 31.8269 40.0003 29.9384 40 27.9883V9.99995C40.0008 8.77903 39.7323 7.57295 39.2138 6.46761C38.6952 5.36227 37.9394 4.38485 37 3.60495V3.60495ZM18.3333 34.88C18.1933 34.86 18.0533 34.8366 17.9133 34.8116L7.43833 32.9083C6.28627 32.6987 5.24432 32.0914 4.49415 31.1923C3.74397 30.2932 3.33316 29.1593 3.33333 27.9883V9.99995C3.33333 8.67387 3.86012 7.4021 4.7978 6.46442C5.73548 5.52674 7.00725 4.99995 8.33333 4.99995C8.63515 5.00067 8.93632 5.028 9.23333 5.08162L15.6 6.24829C16.366 6.38846 17.0588 6.79241 17.5581 7.39003C18.0574 7.98765 18.3316 8.74122 18.3333 9.51995V34.88ZM36.6667 27.9883C36.6668 29.1593 36.256 30.2932 35.5059 31.1923C34.7557 32.0914 33.7137 32.6987 32.5617 32.9083L22.0867 34.8116C21.9467 34.8366 21.8067 34.86 21.6667 34.88V9.51995C21.6665 8.73931 21.9404 7.98338 22.4405 7.38397C22.9407 6.78456 23.6353 6.37969 24.4033 6.23995L30.7717 5.07329C31.4929 4.94207 32.2341 4.97104 32.9429 5.15814C33.6516 5.34524 34.3106 5.68589 34.873 6.15596C35.4355 6.62604 35.8877 7.21404 36.1977 7.87832C36.5077 8.54261 36.6678 9.26692 36.6667 9.99995V27.9883Z" fill="#374957"/>
</g>
<defs>
<clipPath id="clip0_1245_1990">
<rect width="40" height="40" fill="white"/>
</clipPath>
</defs>
</svg>
