<svg width="26" height="27" viewBox="0 0 26 27" fill="none" xmlns="http://www.w3.org/2000/svg">
<g clip-path="url(#clip0_1245_2041)">
<path d="M15.6867 9.10877C15.5925 9.01452 15.5177 8.90262 15.4667 8.77947C15.4157 8.65631 15.3894 8.52432 15.3894 8.39102C15.3894 8.25772 15.4157 8.12573 15.4667 8.00257C15.5177 7.87942 15.5924 7.76752 15.6867 7.67326C15.781 7.57901 15.8929 7.50424 16.016 7.45323C16.1392 7.40221 16.2712 7.37596 16.4045 7.37596C16.5378 7.37596 16.6698 7.40221 16.7929 7.45322C16.9161 7.50423 17.028 7.579 17.1222 7.67326L19.0089 9.56151L18.9317 2.27724C18.9288 2.00821 19.0329 1.74907 19.2212 1.55682C19.4094 1.36457 19.6662 1.25496 19.9353 1.25211C20.2043 1.24925 20.4635 1.35339 20.6557 1.5416C20.848 1.72982 20.9576 1.9867 20.9604 2.25573L21.0377 9.54L22.8839 7.61215C23.0702 7.4178 23.326 7.3054 23.5952 7.29969C23.8643 7.29399 24.1247 7.39543 24.3191 7.58171C24.5134 7.76799 24.6258 8.02385 24.6315 8.293C24.6372 8.56215 24.5358 8.82254 24.3495 9.0169L21.826 11.6509C21.3626 12.1266 20.7298 12.3995 20.0658 12.4102C20.0595 12.4118 20.0529 12.4118 20.0465 12.4104C19.7186 12.4139 19.3932 12.3527 19.089 12.2303C18.7848 12.1078 18.5077 11.9265 18.2737 11.6967L15.6867 9.10877ZM24.1111 12.3673C23.8421 12.3701 23.5852 12.4797 23.397 12.672C23.2088 12.8642 23.1047 13.1234 23.1075 13.3924L23.1828 20.4931C23.1914 21.3002 22.879 22.0776 22.3143 22.6543C21.7497 23.2311 20.9791 23.5599 20.172 23.5685L5.97063 23.7191C5.16354 23.7277 4.38611 23.4152 3.80935 22.8506C3.2326 22.286 2.90378 21.5153 2.89522 20.7082L2.7884 10.6364L9.41592 17.1249C10.3785 18.0577 11.6698 18.5739 13.0102 18.5615C14.3506 18.5492 15.6322 18.0094 16.5776 17.0591L18.4669 15.1835C18.563 15.09 18.6396 14.9784 18.6923 14.8551C18.745 14.7318 18.7727 14.5993 18.7739 14.4652C18.775 14.3311 18.7496 14.1981 18.699 14.074C18.6485 13.9498 18.5738 13.8368 18.4793 13.7417C18.3849 13.6466 18.2725 13.5711 18.1486 13.5196C18.0248 13.4682 17.892 13.4418 17.7579 13.442C17.6239 13.4422 17.4912 13.469 17.3675 13.5208C17.2438 13.5726 17.1317 13.6484 17.0375 13.7439L15.138 15.6297C14.564 16.1886 13.7968 16.5052 12.9957 16.5137C12.1945 16.5222 11.4208 16.222 10.835 15.6753L3.12801 8.12602C3.37926 7.63492 3.75969 7.22163 4.22835 6.93065C4.69701 6.63966 5.23615 6.482 5.78774 6.47462L12.8884 6.39932C13.1574 6.39646 13.4143 6.28685 13.6025 6.0946C13.7907 5.90235 13.8949 5.64321 13.892 5.37418C13.8892 5.10515 13.7796 4.84827 13.5873 4.66005C13.3951 4.47184 13.1359 4.3677 12.8669 4.37056L5.76623 4.44586C4.42159 4.46173 3.13814 5.01028 2.1974 5.97119C1.25667 6.93209 0.735464 8.22688 0.748114 9.57156L0.866455 20.7297C0.882326 22.0744 1.43088 23.3578 2.39178 24.2986C3.35268 25.2393 4.64747 25.7605 5.99215 25.7479L20.1935 25.5972C21.5381 25.5814 22.8216 25.0328 23.7623 24.0719C24.703 23.111 25.2242 21.8162 25.2116 20.4715L25.1363 13.3709C25.1334 13.1019 25.0238 12.845 24.8316 12.6568C24.6393 12.4685 24.3802 12.3644 24.1111 12.3673Z" fill="#90BBD1"/>
</g>
<defs>
<clipPath id="clip0_1245_2041">
<rect width="24.3465" height="24.3465" fill="white" transform="translate(0.662048 1.45651) rotate(-0.60764)"/>
</clipPath>
</defs>
</svg>
