<svg width="39" height="39" viewBox="0 0 39 39" fill="none" xmlns="http://www.w3.org/2000/svg">
<g clip-path="url(#clip0_1245_1989)">
<path d="M30.875 0H8.125C5.97091 0.00258027 3.90578 0.859433 2.38261 2.38261C0.859433 3.90578 0.00258027 5.97091 0 8.125L0 30.875C0.00258027 33.0291 0.859433 35.0942 2.38261 36.6174C3.90578 38.1406 5.97091 38.9974 8.125 39H30.875C33.0291 38.9974 35.0942 38.1406 36.6174 36.6174C38.1406 35.0942 38.9974 33.0291 39 30.875V8.125C38.9974 5.97091 38.1406 3.90578 36.6174 2.38261C35.0942 0.859433 33.0291 0.00258027 30.875 0V0ZM32.5 17.875H35.75V21.125H32.5V17.875ZM32.5 14.625V11.375H35.75V14.625H32.5ZM29.25 17.875H9.75V3.25H29.25V17.875ZM6.5 21.125H3.25V17.875H6.5V21.125ZM6.5 14.625H3.25V11.375H6.5V14.625ZM3.25 24.375H6.5V27.625H3.25V24.375ZM9.75 21.125H29.25V35.75H9.75V21.125ZM32.5 24.375H35.75V27.625H32.5V24.375ZM35.75 8.125H32.5V3.549C33.4472 3.88389 34.2678 4.50325 34.8496 5.32236C35.4314 6.14148 35.7458 7.12033 35.75 8.125ZM6.5 3.549V8.125H3.25C3.25416 7.12033 3.56864 6.14148 4.15039 5.32236C4.73215 4.50325 5.55277 3.88389 6.5 3.549ZM3.25 30.875H6.5V35.451C5.55277 35.1161 4.73215 34.4967 4.15039 33.6776C3.56864 32.8585 3.25416 31.8797 3.25 30.875ZM32.5 35.451V30.875H35.75C35.7458 31.8797 35.4314 32.8585 34.8496 33.6776C34.2678 34.4967 33.4472 35.1161 32.5 35.451V35.451Z" fill="#374957"/>
</g>
<defs>
<clipPath id="clip0_1245_1989">
<rect width="39" height="39" fill="white"/>
</clipPath>
</defs>
</svg>
