<svg width="41" height="38" viewBox="0 0 41 38" fill="none" xmlns="http://www.w3.org/2000/svg">
<g clip-path="url(#clip0_1245_1997)">
<path d="M29.0419 38H11.9671C10.9792 37.9995 10.0031 37.8012 9.10558 37.4186C8.20805 37.036 7.41031 36.4782 6.76696 35.7833C6.13268 35.1036 5.66432 34.305 5.39394 33.442C5.12357 32.579 5.05755 31.672 5.20042 30.7832C6.11765 26.1527 8.78274 21.9758 12.7188 19C8.78268 16.0231 6.11815 11.8451 5.20213 7.21367C5.05954 6.32544 5.12554 5.41915 5.39561 4.55674C5.66567 3.69433 6.13345 2.89612 6.76696 2.21667C7.41031 1.52181 8.20805 0.964003 9.10558 0.581415C10.0031 0.198827 10.9792 0.000496916 11.9671 0L29.0419 0C30.0298 0.000810894 31.0058 0.199282 31.9033 0.581848C32.8007 0.964415 33.5985 1.52206 34.2421 2.21667C34.8757 2.89584 35.3438 3.69367 35.6144 4.55576C35.885 5.41784 35.9519 6.32388 35.8103 7.21208C34.885 11.8448 32.2144 16.0224 28.2749 19C32.2122 21.9801 34.8797 26.1594 35.8018 30.7927C35.9435 31.6811 35.8767 32.5874 35.6061 33.4498C35.3354 34.3122 34.8673 35.1103 34.2335 35.7897C33.5903 36.4821 32.7936 37.038 31.8977 37.4194C31.0018 37.8008 30.0278 37.9988 29.0419 38V38ZM29.0419 3.16667H11.9671C11.4716 3.16638 10.9818 3.26526 10.5313 3.45655C10.0808 3.64783 9.68019 3.92701 9.3568 4.275C9.04102 4.60819 8.80767 5.00135 8.6731 5.42692C8.53853 5.8525 8.50601 6.30021 8.5778 6.73867C9.22013 10.697 11.8646 14.402 16.4361 17.7539C16.6381 17.9022 16.8013 18.0908 16.9135 18.3058C17.0257 18.5207 17.084 18.7565 17.084 18.9953C17.084 19.234 17.0257 19.4698 16.9135 19.6847C16.8013 19.8997 16.6381 20.0883 16.4361 20.2366C11.8646 23.5917 9.22526 27.2998 8.5778 31.2566C8.50523 31.6958 8.53737 32.1444 8.67195 32.5709C8.80654 32.9973 9.0403 33.3913 9.3568 33.725C9.68019 34.073 10.0808 34.3522 10.5313 34.5435C10.9818 34.7347 11.4716 34.8336 11.9671 34.8333H29.0419C29.5375 34.8337 30.0273 34.7349 30.4778 34.5436C30.9283 34.3523 31.3289 34.0731 31.6523 33.725C31.968 33.3924 32.2013 32.9998 32.3359 32.5747C32.4704 32.1497 32.503 31.7025 32.4313 31.2645C31.794 27.3268 29.1513 23.6186 24.5729 20.2413C24.3722 20.093 24.2101 19.9047 24.0986 19.6903C23.9872 19.476 23.9294 19.2411 23.9294 19.0032C23.9294 18.7652 23.9872 18.5304 24.0986 18.316C24.2101 18.1016 24.3722 17.9133 24.5729 17.765C29.153 14.3878 31.7958 10.6796 32.4313 6.74025C32.5028 6.30095 32.4693 5.85246 32.3332 5.42648C32.1971 5.00049 31.9617 4.6074 31.6437 4.275C31.3213 3.92794 30.9221 3.6493 30.4731 3.45805C30.0242 3.2668 29.536 3.16742 29.0419 3.16667V3.16667ZM26.7886 31.6667H14.2102C13.9307 31.6666 13.6554 31.6029 13.4087 31.4812C13.1619 31.3596 12.9511 31.1836 12.7947 30.9689C12.6384 30.7541 12.5413 30.5071 12.512 30.2494C12.4827 29.9918 12.522 29.7314 12.6265 29.4912C13.9643 26.8139 16.0026 24.4888 18.5562 22.7272L19.4411 22.0748C19.7434 21.852 20.1183 21.7306 20.5045 21.7306C20.8908 21.7306 21.2657 21.852 21.568 22.0748L22.4375 22.7177C24.9875 24.4863 27.0258 26.8122 28.3705 29.488C28.4758 29.7283 28.5157 29.9889 28.4868 30.2468C28.4579 30.5048 28.3611 30.7522 28.2049 30.9673C28.0486 31.1825 27.8378 31.3588 27.5909 31.4807C27.3439 31.6027 27.0684 31.6665 26.7886 31.6667V31.6667ZM17.1417 28.5H23.852C22.8773 27.3225 21.7518 26.2592 20.5003 25.3333C19.2432 26.2555 18.115 27.3193 17.1417 28.5V28.5Z" fill="#374957"/>
</g>
<defs>
<clipPath id="clip0_1245_1997">
<rect width="41" height="38" fill="white"/>
</clipPath>
</defs>
</svg>
