<svg width="42" height="42" viewBox="0 0 42 42" fill="none" xmlns="http://www.w3.org/2000/svg">
<g clip-path="url(#clip0_1245_1994)">
<path d="M33.25 0H8.75C6.43021 0.00277875 4.20623 0.925543 2.56588 2.56588C0.925543 4.20623 0.00277875 6.43021 0 8.75L0 33.25C0.00277875 35.5698 0.925543 37.7938 2.56588 39.4341C4.20623 41.0745 6.43021 41.9972 8.75 42H33.25C35.5698 41.9972 37.7938 41.0745 39.4341 39.4341C41.0745 37.7938 41.9972 35.5698 42 33.25V8.75C41.9972 6.43021 41.0745 4.20623 39.4341 2.56588C37.7938 0.925543 35.5698 0.00277875 33.25 0V0ZM12.25 38.5V36.75C12.25 34.4294 13.1719 32.2038 14.8128 30.5628C16.4538 28.9219 18.6794 28 21 28C23.3206 28 25.5462 28.9219 27.1872 30.5628C28.8281 32.2038 29.75 34.4294 29.75 36.75V38.5H12.25ZM38.5 33.25C38.5 34.6424 37.9469 35.9777 36.9623 36.9623C35.9777 37.9469 34.6424 38.5 33.25 38.5V36.75C33.25 33.5011 31.9594 30.3853 29.6621 28.0879C27.3647 25.7906 24.2489 24.5 21 24.5C17.7511 24.5 14.6353 25.7906 12.3379 28.0879C10.0406 30.3853 8.75 33.5011 8.75 36.75V38.5C7.35761 38.5 6.02226 37.9469 5.03769 36.9623C4.05312 35.9777 3.5 34.6424 3.5 33.25V8.75C3.5 7.35761 4.05312 6.02226 5.03769 5.03769C6.02226 4.05312 7.35761 3.5 8.75 3.5H33.25C34.6424 3.5 35.9777 4.05312 36.9623 5.03769C37.9469 6.02226 38.5 7.35761 38.5 8.75V33.25Z" fill="#374957"/>
<path d="M21.0001 7.00055C19.6157 7.00055 18.2623 7.41109 17.1111 8.18026C15.96 8.94943 15.0628 10.0427 14.533 11.3218C14.0032 12.6008 13.8645 14.0083 14.1346 15.3662C14.4047 16.724 15.0714 17.9713 16.0504 18.9503C17.0293 19.9293 18.2766 20.596 19.6345 20.866C20.9924 21.1361 22.3998 20.9975 23.6789 20.4677C24.958 19.9379 26.0512 19.0407 26.8204 17.8895C27.5896 16.7384 28.0001 15.385 28.0001 14.0005C28.0001 12.144 27.2626 10.3636 25.9499 9.0508C24.6371 7.73805 22.8566 7.00055 21.0001 7.00055ZM21.0001 17.5005C20.3079 17.5005 19.6312 17.2953 19.0556 16.9107C18.4801 16.5261 18.0315 15.9795 17.7665 15.3399C17.5016 14.7004 17.4323 13.9967 17.5674 13.3177C17.7024 12.6388 18.0358 12.0152 18.5253 11.5257C19.0147 11.0362 19.6384 10.7028 20.3173 10.5678C20.9962 10.4328 21.7 10.5021 22.3395 10.767C22.9791 11.0319 23.5257 11.4805 23.9103 12.0561C24.2949 12.6316 24.5001 13.3083 24.5001 14.0005C24.5001 14.9288 24.1314 15.819 23.475 16.4754C22.8186 17.1318 21.9284 17.5005 21.0001 17.5005Z" fill="#374957"/>
</g>
<defs>
<clipPath id="clip0_1245_1994">
<rect width="42" height="42" fill="white"/>
</clipPath>
</defs>
</svg>
