<svg width="26" height="25" viewBox="0 0 26 25" fill="none" xmlns="http://www.w3.org/2000/svg">
<g clip-path="url(#clip0_1245_2035)">
<path d="M21.297 0H4.63038C3.52531 0 2.4655 0.438987 1.6841 1.22039C0.902701 2.00179 0.463715 3.0616 0.463715 4.16667L0.463715 16.6667C0.463715 17.7717 0.902701 18.8315 1.6841 19.6129C2.4655 20.3943 3.52531 20.8333 4.63038 20.8333H7.65121L12.2877 24.7531C12.4758 24.9123 12.7142 24.9996 12.9606 24.9996C13.207 24.9996 13.4454 24.9123 13.6335 24.7531L18.2762 20.8333H21.297C22.4021 20.8333 23.4619 20.3943 24.2433 19.6129C25.0247 18.8315 25.4637 17.7717 25.4637 16.6667V4.16667C25.4637 3.0616 25.0247 2.00179 24.2433 1.22039C23.4619 0.438987 22.4021 0 21.297 0V0ZM23.3804 16.6667C23.3804 17.2192 23.1609 17.7491 22.7702 18.1398C22.3795 18.5305 21.8496 18.75 21.297 18.75H18.2762C17.7838 18.7502 17.3074 18.9247 16.9314 19.2427L12.9637 22.5938L8.99809 19.2427C8.62159 18.9242 8.14434 18.7497 7.65121 18.75H4.63038C4.07785 18.75 3.54794 18.5305 3.15724 18.1398C2.76654 17.7491 2.54705 17.2192 2.54705 16.6667V4.16667C2.54705 3.61413 2.76654 3.08423 3.15724 2.69353C3.54794 2.30283 4.07785 2.08333 4.63038 2.08333H21.297C21.8496 2.08333 22.3795 2.30283 22.7702 2.69353C23.1609 3.08423 23.3804 3.61413 23.3804 4.16667V16.6667Z" fill="white"/>
<path d="M7.75538 7.29183H12.9637C13.24 7.29183 13.5049 7.18208 13.7003 6.98673C13.8956 6.79138 14.0054 6.52643 14.0054 6.25016C14.0054 5.97389 13.8956 5.70894 13.7003 5.51359C13.5049 5.31824 13.24 5.2085 12.9637 5.2085H7.75538C7.47911 5.2085 7.21416 5.31824 7.01881 5.51359C6.82346 5.70894 6.71371 5.97389 6.71371 6.25016C6.71371 6.52643 6.82346 6.79138 7.01881 6.98673C7.21416 7.18208 7.47911 7.29183 7.75538 7.29183Z" fill="white"/>
<path d="M18.172 9.375H7.75538C7.47911 9.375 7.21416 9.48475 7.01881 9.6801C6.82346 9.87545 6.71371 10.1404 6.71371 10.4167C6.71371 10.6929 6.82346 10.9579 7.01881 11.1532C7.21416 11.3486 7.47911 11.4583 7.75538 11.4583H18.172C18.4483 11.4583 18.7133 11.3486 18.9086 11.1532C19.104 10.9579 19.2137 10.6929 19.2137 10.4167C19.2137 10.1404 19.104 9.87545 18.9086 9.6801C18.7133 9.48475 18.4483 9.375 18.172 9.375Z" fill="white"/>
<path d="M18.172 13.5415H7.75538C7.47911 13.5415 7.21416 13.6513 7.01881 13.8466C6.82346 14.042 6.71371 14.3069 6.71371 14.5832C6.71371 14.8594 6.82346 15.1244 7.01881 15.3197C7.21416 15.5151 7.47911 15.6248 7.75538 15.6248H18.172C18.4483 15.6248 18.7133 15.5151 18.9086 15.3197C19.104 15.1244 19.2137 14.8594 19.2137 14.5832C19.2137 14.3069 19.104 14.042 18.9086 13.8466C18.7133 13.6513 18.4483 13.5415 18.172 13.5415Z" fill="white"/>
</g>
<defs>
<clipPath id="clip0_1245_2035">
<rect width="25" height="25" fill="white" transform="translate(0.463715)"/>
</clipPath>
</defs>
</svg>
