<svg width="35" height="18" viewBox="0 0 35 18" fill="none" xmlns="http://www.w3.org/2000/svg">
<path d="M1.46103 11.3984L6.91539 16.769C7.04642 16.8977 7.20306 17.0007 7.37629 17.072C7.54951 17.1433 7.73589 17.1815 7.92467 17.1845C8.11346 17.1874 8.3009 17.1549 8.4762 17.089C8.65151 17.023 8.81119 16.9249 8.94604 16.8003C9.08198 16.6767 9.19062 16.5288 9.26571 16.3652C9.3408 16.2016 9.38085 16.0255 9.38355 15.8471C9.38625 15.6687 9.35154 15.4914 9.28143 15.3256C9.21132 15.1597 9.10719 15.0086 8.97505 14.8809L3.95726 9.96317L33.1157 10.4131C33.495 10.419 33.8609 10.2822 34.1329 10.0328C34.4049 9.78344 34.5608 9.44195 34.5662 9.08345C34.5716 8.72496 34.4261 8.37882 34.1618 8.12119C33.8974 7.86355 33.5358 7.71553 33.1566 7.70967L3.91231 7.25843L9.16301 2.44511C9.42033 2.19763 9.56682 1.86583 9.57206 1.51852C9.57731 1.17121 9.44093 0.835044 9.1912 0.579746C9.06017 0.451001 8.90353 0.348 8.7303 0.276687C8.55708 0.205373 8.3707 0.167158 8.18191 0.164245C7.99313 0.161332 7.80568 0.193779 7.63038 0.259715C7.45508 0.32565 7.2954 0.42377 7.16054 0.548412L1.54765 5.66711C0.732757 6.41505 0.26592 7.43876 0.249678 8.51338C0.233437 9.58799 0.66912 10.6256 1.46103 11.3984Z" fill="white"/>
</svg>
