<svg width="57" height="58" viewBox="0 0 57 58" fill="none" xmlns="http://www.w3.org/2000/svg">
<path d="M40.5 5.42856H16.9285C10.4195 5.42856 5.14282 10.7052 5.14282 17.2143V40.7857C5.14282 47.2948 10.4195 52.5714 16.9285 52.5714H40.5C47.009 52.5714 52.2857 47.2948 52.2857 40.7857V17.2143C52.2857 10.7052 47.009 5.42856 40.5 5.42856Z" stroke="white" stroke-width="4.71429" stroke-linecap="round" stroke-linejoin="round"/>
<path d="M38.143 27.515C38.4339 29.4767 38.0988 31.4802 37.1854 33.2405C36.272 35.0008 34.8268 36.4283 33.0554 37.3199C31.284 38.2115 29.2765 38.5219 27.3185 38.2068C25.3605 37.8918 23.5517 36.9673 22.1494 35.565C20.7471 34.1627 19.8226 32.3539 19.5076 30.3959C19.1925 28.4379 19.5029 26.4305 20.3945 24.659C21.2861 22.8876 22.7136 21.4424 24.4739 20.529C26.2342 19.6156 28.2377 19.2805 30.1994 19.5714C32.2004 19.8681 34.053 20.8006 35.4834 22.231C36.9138 23.6614 37.8463 25.514 38.143 27.515Z" stroke="white" stroke-width="4.71429" stroke-linecap="round" stroke-linejoin="round"/>
<path d="M41.6786 16.0357H41.7021" stroke="white" stroke-width="4.71429" stroke-linecap="round" stroke-linejoin="round"/>
</svg>
