<svg width="57" height="57" viewBox="0 0 57 57" fill="none" xmlns="http://www.w3.org/2000/svg">
<path d="M38.1429 18.8571C41.8938 18.8571 45.4911 20.3472 48.1434 22.9995C50.7957 25.6518 52.2857 29.2491 52.2857 33V49.5H42.8571V33C42.8571 31.7497 42.3605 30.5506 41.4764 29.6665C40.5923 28.7824 39.3932 28.2857 38.1429 28.2857C36.8926 28.2857 35.6935 28.7824 34.8094 29.6665C33.9253 30.5506 33.4286 31.7497 33.4286 33V49.5H24V33C24 29.2491 25.49 25.6518 28.1423 22.9995C30.7946 20.3472 34.3919 18.8571 38.1429 18.8571Z" stroke="white" stroke-width="4.71429" stroke-linecap="round" stroke-linejoin="round"/>
<path d="M14.5714 21.2143H5.14282V49.5H14.5714V21.2143Z" stroke="white" stroke-width="4.71429" stroke-linecap="round" stroke-linejoin="round"/>
<path d="M9.85711 14.1429C12.4607 14.1429 14.5714 12.0322 14.5714 9.42858C14.5714 6.82495 12.4607 4.71429 9.85711 4.71429C7.25348 4.71429 5.14282 6.82495 5.14282 9.42858C5.14282 12.0322 7.25348 14.1429 9.85711 14.1429Z" stroke="white" stroke-width="4.71429" stroke-linecap="round" stroke-linejoin="round"/>
</svg>
