<svg width="165" height="41" viewBox="0 0 165 41" fill="none" xmlns="http://www.w3.org/2000/svg">
<rect x="0.5" y="0.5" width="164" height="40" fill="#011481" stroke="white"/>
<g filter="url(#filter0_d_1252_2775)">
<path d="M19.6562 24.4531C19.9167 24.4531 20.1693 24.4245 20.4141 24.3672C20.6641 24.3047 20.8828 24.2161 21.0703 24.1016C21.263 23.9818 21.4167 23.8333 21.5312 23.6562C21.6458 23.474 21.7031 23.2656 21.7031 23.0312C21.7031 22.7812 21.638 22.5625 21.5078 22.375C21.3776 22.1823 21.2031 22.0078 20.9844 21.8516C20.7708 21.6901 20.526 21.5391 20.25 21.3984C19.9792 21.2578 19.7005 21.112 19.4141 20.9609C19.1276 20.8047 18.8464 20.638 18.5703 20.4609C18.2995 20.2786 18.0547 20.0703 17.8359 19.8359C17.6224 19.6016 17.4505 19.3307 17.3203 19.0234C17.1901 18.7161 17.125 18.3594 17.125 17.9531C17.125 17.4323 17.2396 16.9531 17.4688 16.5156C17.6979 16.0781 18.0182 15.7031 18.4297 15.3906C18.8411 15.0781 19.3333 14.8359 19.9062 14.6641C20.4844 14.487 21.1224 14.3984 21.8203 14.3984C21.9974 14.3984 22.2057 14.4062 22.4453 14.4219C22.6849 14.4323 22.9375 14.4531 23.2031 14.4844C23.4688 14.5156 23.7422 14.5573 24.0234 14.6094C24.3099 14.6615 24.5859 14.7266 24.8516 14.8047L24.2344 16.6406L24.0938 16.7031C23.8594 16.5938 23.625 16.5026 23.3906 16.4297C23.1562 16.3516 22.9271 16.2891 22.7031 16.2422C22.4844 16.1901 22.276 16.1536 22.0781 16.1328C21.8854 16.112 21.7135 16.1016 21.5625 16.1016C21.2917 16.1016 21.0443 16.1328 20.8203 16.1953C20.6016 16.2526 20.4141 16.3385 20.2578 16.4531C20.1016 16.5625 19.9792 16.6979 19.8906 16.8594C19.8073 17.0156 19.7656 17.1927 19.7656 17.3906C19.7656 17.6406 19.8307 17.862 19.9609 18.0547C20.0964 18.2422 20.2708 18.4167 20.4844 18.5781C20.6979 18.7344 20.9427 18.8828 21.2188 19.0234C21.4948 19.1641 21.776 19.3125 22.0625 19.4688C22.349 19.6198 22.6302 19.7865 22.9062 19.9688C23.1823 20.151 23.4271 20.3594 23.6406 20.5938C23.8542 20.8281 24.026 21.0964 24.1562 21.3984C24.2917 21.7005 24.3594 22.0521 24.3594 22.4531C24.3594 22.9792 24.2422 23.4688 24.0078 23.9219C23.7734 24.3698 23.4401 24.7604 23.0078 25.0938C22.5807 25.4271 22.0677 25.6875 21.4688 25.875C20.8698 26.0625 20.2057 26.1562 19.4766 26.1562C19.2109 26.1562 18.9297 26.1406 18.6328 26.1094C18.3411 26.0833 18.0417 26.0417 17.7344 25.9844C17.4323 25.9271 17.125 25.8516 16.8125 25.7578C16.5052 25.6641 16.2083 25.5495 15.9219 25.4141L16.5312 23.5859L16.7031 23.5078C16.9844 23.6484 17.25 23.7786 17.5 23.8984C17.7552 24.013 18.0026 24.112 18.2422 24.1953C18.4818 24.2786 18.7188 24.3438 18.9531 24.3906C19.1875 24.4323 19.4219 24.4531 19.6562 24.4531ZM32.0078 22.4609C31.888 22.6172 31.763 22.7734 31.6328 22.9297C31.513 23.2005 31.3828 23.4766 31.2422 23.7578C31.1068 24.0339 30.9688 24.3047 30.8281 24.5703C30.6875 24.8359 30.5469 25.0911 30.4062 25.3359C30.2656 25.5755 30.1302 25.7969 30 26H27.1484L26.0391 17.7188H28.9453L29.2578 22.4688C29.263 22.7344 29.2656 23 29.2656 23.2656C29.2708 23.5312 29.2734 23.7969 29.2734 24.0625H29.4297C29.8724 23.3333 30.2604 22.5807 30.5938 21.8047C30.9323 21.0286 31.2318 20.263 31.4922 19.5078L31.2578 17.7188H34.0625L34.3516 22.1797L34.375 23.0938C34.3802 23.2604 34.3828 23.4245 34.3828 23.5859C34.388 23.7422 34.3906 23.901 34.3906 24.0625H34.5469C34.8594 23.5677 35.1328 23.0677 35.3672 22.5625C35.6068 22.0521 35.8151 21.5339 35.9922 21.0078C36.1693 20.4818 36.3203 19.9453 36.4453 19.3984C36.5755 18.8516 36.6901 18.2917 36.7891 17.7188H39.2969C39.0885 18.5 38.8516 19.25 38.5859 19.9688C38.3255 20.6875 38.026 21.388 37.6875 22.0703C37.349 22.7474 36.9661 23.4115 36.5391 24.0625C36.1172 24.7135 35.6432 25.3594 35.1172 26H32.3672L32.0078 22.4609ZM43.2266 26.1562C42.7057 26.1562 42.2292 26.0755 41.7969 25.9141C41.3698 25.7474 41.0026 25.5104 40.6953 25.2031C40.388 24.8958 40.1484 24.5234 39.9766 24.0859C39.8099 23.6432 39.7266 23.1432 39.7266 22.5859C39.7266 22.0859 39.7943 21.6146 39.9297 21.1719C40.0651 20.7292 40.2526 20.3229 40.4922 19.9531C40.737 19.5781 41.0234 19.2448 41.3516 18.9531C41.6849 18.6562 42.0469 18.4062 42.4375 18.2031C42.8281 17.9948 43.2396 17.8359 43.6719 17.7266C44.1094 17.6172 44.5521 17.5625 45 17.5625C45.4948 17.5625 45.9271 17.6276 46.2969 17.7578C46.6719 17.8828 46.9818 18.0495 47.2266 18.2578C47.4766 18.4661 47.6615 18.7057 47.7812 18.9766C47.9062 19.2422 47.9688 19.5156 47.9688 19.7969C47.9688 20.2031 47.8464 20.5755 47.6016 20.9141C47.362 21.2526 47.0208 21.5443 46.5781 21.7891C46.1354 22.0339 45.6016 22.2266 44.9766 22.3672C44.3516 22.5026 43.6562 22.5703 42.8906 22.5703H42.5C42.5 22.8151 42.5469 23.0443 42.6406 23.2578C42.7344 23.4714 42.8724 23.6589 43.0547 23.8203C43.237 23.9766 43.4609 24.1016 43.7266 24.1953C43.9974 24.2891 44.3073 24.3359 44.6562 24.3359C45.026 24.3359 45.3854 24.2839 45.7344 24.1797C46.0833 24.0703 46.4401 23.9167 46.8047 23.7188V24.8203C46.5599 25.0339 46.2943 25.224 46.0078 25.3906C45.7214 25.5573 45.4245 25.6979 45.1172 25.8125C44.8099 25.9271 44.4948 26.013 44.1719 26.0703C43.8542 26.1276 43.5391 26.1562 43.2266 26.1562ZM44.5312 19.2422C44.2969 19.2422 44.0677 19.3073 43.8438 19.4375C43.6198 19.5677 43.4167 19.7422 43.2344 19.9609C43.0521 20.1797 42.8984 20.4323 42.7734 20.7188C42.6484 21 42.5651 21.2969 42.5234 21.6094H43C43.3281 21.6094 43.638 21.5781 43.9297 21.5156C44.2214 21.4479 44.4766 21.3542 44.6953 21.2344C44.9193 21.1094 45.0964 20.9609 45.2266 20.7891C45.3568 20.612 45.4219 20.4115 45.4219 20.1875C45.4219 20.0885 45.4062 19.9844 45.375 19.875C45.3438 19.7604 45.2917 19.6562 45.2188 19.5625C45.151 19.4688 45.0599 19.3932 44.9453 19.3359C44.8307 19.2734 44.6927 19.2422 44.5312 19.2422ZM52.4609 26.1562C51.9401 26.1562 51.4635 26.0755 51.0312 25.9141C50.6042 25.7474 50.237 25.5104 49.9297 25.2031C49.6224 24.8958 49.3828 24.5234 49.2109 24.0859C49.0443 23.6432 48.9609 23.1432 48.9609 22.5859C48.9609 22.0859 49.0286 21.6146 49.1641 21.1719C49.2995 20.7292 49.487 20.3229 49.7266 19.9531C49.9714 19.5781 50.2578 19.2448 50.5859 18.9531C50.9193 18.6562 51.2812 18.4062 51.6719 18.2031C52.0625 17.9948 52.474 17.8359 52.9062 17.7266C53.3438 17.6172 53.7865 17.5625 54.2344 17.5625C54.7292 17.5625 55.1615 17.6276 55.5312 17.7578C55.9062 17.8828 56.2161 18.0495 56.4609 18.2578C56.7109 18.4661 56.8958 18.7057 57.0156 18.9766C57.1406 19.2422 57.2031 19.5156 57.2031 19.7969C57.2031 20.2031 57.0807 20.5755 56.8359 20.9141C56.5964 21.2526 56.2552 21.5443 55.8125 21.7891C55.3698 22.0339 54.8359 22.2266 54.2109 22.3672C53.5859 22.5026 52.8906 22.5703 52.125 22.5703H51.7344C51.7344 22.8151 51.7812 23.0443 51.875 23.2578C51.9688 23.4714 52.1068 23.6589 52.2891 23.8203C52.4714 23.9766 52.6953 24.1016 52.9609 24.1953C53.2318 24.2891 53.5417 24.3359 53.8906 24.3359C54.2604 24.3359 54.6198 24.2839 54.9688 24.1797C55.3177 24.0703 55.6745 23.9167 56.0391 23.7188V24.8203C55.7943 25.0339 55.5286 25.224 55.2422 25.3906C54.9557 25.5573 54.6589 25.6979 54.3516 25.8125C54.0443 25.9271 53.7292 26.013 53.4062 26.0703C53.0885 26.1276 52.7734 26.1562 52.4609 26.1562ZM53.7656 19.2422C53.5312 19.2422 53.3021 19.3073 53.0781 19.4375C52.8542 19.5677 52.651 19.7422 52.4688 19.9609C52.2865 20.1797 52.1328 20.4323 52.0078 20.7188C51.8828 21 51.7995 21.2969 51.7578 21.6094H52.2344C52.5625 21.6094 52.8724 21.5781 53.1641 21.5156C53.4557 21.4479 53.7109 21.3542 53.9297 21.2344C54.1536 21.1094 54.3307 20.9609 54.4609 20.7891C54.5911 20.612 54.6562 20.4115 54.6562 20.1875C54.6562 20.0885 54.6406 19.9844 54.6094 19.875C54.5781 19.7604 54.526 19.6562 54.4531 19.5625C54.3854 19.4688 54.2943 19.3932 54.1797 19.3359C54.0651 19.2734 53.9271 19.2422 53.7656 19.2422ZM59.7188 19.3984H58.0625L58.3672 18.25C58.6536 18.151 58.9036 18.0573 59.1172 17.9688C59.3307 17.8802 59.5182 17.7865 59.6797 17.6875C59.8464 17.5833 59.9948 17.4714 60.125 17.3516C60.2552 17.2318 60.3828 17.0911 60.5078 16.9297C60.6328 16.763 60.7604 16.5755 60.8906 16.3672C61.026 16.1589 61.1797 15.9141 61.3516 15.6328H62.6953L62.4609 17.7188H65.3906L64.8203 19.3984H62.4375L62.0391 22.8984C61.9818 23.4141 62.0599 23.7839 62.2734 24.0078C62.487 24.2266 62.7995 24.3359 63.2109 24.3359C63.4297 24.3359 63.6406 24.3073 63.8438 24.25C64.0469 24.1875 64.276 24.0911 64.5312 23.9609V25.1016C64.0833 25.4401 63.599 25.7005 63.0781 25.8828C62.5573 26.0651 62.0495 26.1562 61.5547 26.1562C61.0911 26.1562 60.7031 26.0755 60.3906 25.9141C60.0781 25.7526 59.8333 25.5339 59.6562 25.2578C59.4792 24.9766 59.3646 24.6484 59.3125 24.2734C59.2604 23.8932 59.2578 23.4844 59.3047 23.0469L59.7188 19.3984ZM75.4219 24.4531C75.7708 24.4531 76.1016 24.3932 76.4141 24.2734C76.7266 24.1536 77.013 23.987 77.2734 23.7734C77.5339 23.5547 77.7656 23.2995 77.9688 23.0078C78.1771 22.7109 78.3542 22.388 78.5 22.0391C78.6458 21.6901 78.7552 21.3229 78.8281 20.9375C78.9062 20.5469 78.9453 20.151 78.9453 19.75C78.9453 19.2448 78.8828 18.7708 78.7578 18.3281C78.638 17.8854 78.4583 17.5 78.2188 17.1719C77.9844 16.8385 77.6927 16.5781 77.3438 16.3906C77 16.1979 76.6068 16.1016 76.1641 16.1016C75.6328 16.1016 75.151 16.2344 74.7188 16.5C74.2865 16.7656 73.9167 17.1198 73.6094 17.5625C73.3021 18 73.0651 18.5026 72.8984 19.0703C72.7318 19.638 72.6484 20.2214 72.6484 20.8203C72.6484 21.3255 72.7083 21.7995 72.8281 22.2422C72.9531 22.6797 73.1328 23.0625 73.3672 23.3906C73.6068 23.7188 73.8984 23.9792 74.2422 24.1719C74.5859 24.3594 74.9792 24.4531 75.4219 24.4531ZM74.9844 26.1562C74.2083 26.1562 73.5 26.0417 72.8594 25.8125C72.2188 25.5833 71.6693 25.2526 71.2109 24.8203C70.7526 24.3828 70.3958 23.849 70.1406 23.2188C69.8854 22.5833 69.7578 21.862 69.7578 21.0547C69.7578 20.4036 69.8385 19.7891 70 19.2109C70.1667 18.6276 70.3984 18.0911 70.6953 17.6016C70.9974 17.1068 71.3568 16.6615 71.7734 16.2656C72.1953 15.8698 72.6589 15.5339 73.1641 15.2578C73.6745 14.9818 74.2188 14.7708 74.7969 14.625C75.3802 14.474 75.9844 14.3984 76.6094 14.3984C77.375 14.3984 78.0781 14.513 78.7188 14.7422C79.3594 14.9661 79.9089 15.2943 80.3672 15.7266C80.8307 16.1589 81.1901 16.6927 81.4453 17.3281C81.7005 17.9635 81.8281 18.6875 81.8281 19.5C81.8281 20.151 81.7448 20.7682 81.5781 21.3516C81.4167 21.9297 81.1875 22.4661 80.8906 22.9609C80.5938 23.4557 80.2344 23.901 79.8125 24.2969C79.3958 24.6875 78.9349 25.0208 78.4297 25.2969C77.9245 25.5729 77.3802 25.7865 76.7969 25.9375C76.2135 26.0833 75.6094 26.1562 74.9844 26.1562ZM84.5625 13.4844H87.2812L85.8516 26H83.1328L84.5625 13.4844ZM93.7266 24.3828C93.4974 24.6328 93.263 24.8672 93.0234 25.0859C92.7839 25.2995 92.5365 25.487 92.2812 25.6484C92.0312 25.8047 91.7708 25.9271 91.5 26.0156C91.2344 26.1094 90.9609 26.1562 90.6797 26.1562C90.2734 26.1562 89.9062 26.0651 89.5781 25.8828C89.2552 25.7005 88.9792 25.4557 88.75 25.1484C88.526 24.8359 88.3542 24.4766 88.2344 24.0703C88.1146 23.6589 88.0547 23.224 88.0547 22.7656C88.0547 22.2917 88.1198 21.8333 88.25 21.3906C88.3802 20.9479 88.5599 20.5339 88.7891 20.1484C89.0234 19.763 89.3021 19.4115 89.625 19.0938C89.9479 18.776 90.2995 18.5052 90.6797 18.2812C91.0599 18.0521 91.4609 17.875 91.8828 17.75C92.3099 17.625 92.7448 17.5625 93.1875 17.5625C93.4375 17.5625 93.6589 17.5807 93.8516 17.6172C94.0443 17.6484 94.224 17.6875 94.3906 17.7344L94.875 13.4844H97.5938L96.1641 26H93.8516L93.7266 24.3828ZM94.1875 19.5C94.026 19.4115 93.8568 19.3464 93.6797 19.3047C93.5078 19.263 93.3438 19.2422 93.1875 19.2422C92.849 19.2422 92.5391 19.3307 92.2578 19.5078C91.9766 19.6797 91.7344 19.9115 91.5312 20.2031C91.3281 20.4948 91.1693 20.8333 91.0547 21.2188C90.9453 21.6042 90.8906 22.0078 90.8906 22.4297C90.8906 23.0443 90.9974 23.5156 91.2109 23.8438C91.4297 24.1719 91.7083 24.3359 92.0469 24.3359C92.1979 24.3359 92.349 24.3047 92.5 24.2422C92.6562 24.1745 92.8073 24.0859 92.9531 23.9766C93.1042 23.862 93.25 23.7318 93.3906 23.5859C93.5312 23.4349 93.6615 23.276 93.7812 23.1094L94.1875 19.5ZM107.258 26H104.5L105.609 16.2578H102.062L102.555 14.5547H112.164L111.664 16.2578H108.375L107.258 26ZM113.422 17.7188H116.141L115.195 26H112.477L113.422 17.7188ZM114.891 16.4141C114.672 16.4141 114.477 16.3828 114.305 16.3203C114.138 16.2578 113.995 16.1719 113.875 16.0625C113.755 15.9531 113.664 15.8255 113.602 15.6797C113.539 15.5339 113.508 15.3776 113.508 15.2109C113.508 15.0026 113.552 14.8073 113.641 14.625C113.734 14.4427 113.859 14.2839 114.016 14.1484C114.177 14.013 114.365 13.9062 114.578 13.8281C114.797 13.7448 115.031 13.7031 115.281 13.7031C115.495 13.7031 115.688 13.7344 115.859 13.7969C116.031 13.8594 116.177 13.9453 116.297 14.0547C116.417 14.1641 116.508 14.2917 116.57 14.4375C116.638 14.5833 116.672 14.7422 116.672 14.9141C116.672 15.1224 116.625 15.3177 116.531 15.5C116.443 15.6823 116.318 15.8411 116.156 15.9766C115.995 16.112 115.805 16.2188 115.586 16.2969C115.372 16.375 115.141 16.4141 114.891 16.4141ZM118.453 17.7188H120.773L120.891 19.4922C121.115 19.2422 121.344 19.0026 121.578 18.7734C121.812 18.5391 122.055 18.3333 122.305 18.1562C122.56 17.974 122.826 17.8307 123.102 17.7266C123.383 17.6172 123.685 17.5625 124.008 17.5625C124.315 17.5625 124.591 17.612 124.836 17.7109C125.081 17.8099 125.292 17.9479 125.469 18.125C125.646 18.2969 125.786 18.5052 125.891 18.75C126 18.9896 126.073 19.25 126.109 19.5312C126.328 19.2656 126.557 19.0156 126.797 18.7812C127.036 18.5417 127.286 18.3333 127.547 18.1562C127.807 17.974 128.078 17.8307 128.359 17.7266C128.646 17.6172 128.945 17.5625 129.258 17.5625C129.633 17.5625 129.958 17.6354 130.234 17.7812C130.516 17.9271 130.745 18.1276 130.922 18.3828C131.104 18.6328 131.232 18.9271 131.305 19.2656C131.378 19.6042 131.391 19.9635 131.344 20.3438L130.703 26H127.984L128.602 20.6094C128.643 20.2448 128.594 19.9505 128.453 19.7266C128.318 19.5026 128.122 19.3906 127.867 19.3906C127.716 19.3906 127.562 19.4297 127.406 19.5078C127.25 19.5859 127.094 19.6927 126.938 19.8281C126.781 19.9583 126.628 20.1094 126.477 20.2812C126.326 20.4479 126.185 20.625 126.055 20.8125V20.8047L125.461 26H122.75L123.367 20.6094C123.409 20.2448 123.357 19.9505 123.211 19.7266C123.07 19.5026 122.872 19.3906 122.617 19.3906C122.471 19.3906 122.32 19.4297 122.164 19.5078C122.008 19.5859 121.852 19.6927 121.695 19.8281C121.544 19.9583 121.393 20.1094 121.242 20.2812C121.091 20.4531 120.951 20.6328 120.82 20.8203L120.227 26H117.508L118.453 17.7188ZM136.398 26.1562C135.878 26.1562 135.401 26.0755 134.969 25.9141C134.542 25.7474 134.174 25.5104 133.867 25.2031C133.56 24.8958 133.32 24.5234 133.148 24.0859C132.982 23.6432 132.898 23.1432 132.898 22.5859C132.898 22.0859 132.966 21.6146 133.102 21.1719C133.237 20.7292 133.424 20.3229 133.664 19.9531C133.909 19.5781 134.195 19.2448 134.523 18.9531C134.857 18.6562 135.219 18.4062 135.609 18.2031C136 17.9948 136.411 17.8359 136.844 17.7266C137.281 17.6172 137.724 17.5625 138.172 17.5625C138.667 17.5625 139.099 17.6276 139.469 17.7578C139.844 17.8828 140.154 18.0495 140.398 18.2578C140.648 18.4661 140.833 18.7057 140.953 18.9766C141.078 19.2422 141.141 19.5156 141.141 19.7969C141.141 20.2031 141.018 20.5755 140.773 20.9141C140.534 21.2526 140.193 21.5443 139.75 21.7891C139.307 22.0339 138.773 22.2266 138.148 22.3672C137.523 22.5026 136.828 22.5703 136.062 22.5703H135.672C135.672 22.8151 135.719 23.0443 135.812 23.2578C135.906 23.4714 136.044 23.6589 136.227 23.8203C136.409 23.9766 136.633 24.1016 136.898 24.1953C137.169 24.2891 137.479 24.3359 137.828 24.3359C138.198 24.3359 138.557 24.2839 138.906 24.1797C139.255 24.0703 139.612 23.9167 139.977 23.7188V24.8203C139.732 25.0339 139.466 25.224 139.18 25.3906C138.893 25.5573 138.596 25.6979 138.289 25.8125C137.982 25.9271 137.667 26.013 137.344 26.0703C137.026 26.1276 136.711 26.1562 136.398 26.1562ZM137.703 19.2422C137.469 19.2422 137.24 19.3073 137.016 19.4375C136.792 19.5677 136.589 19.7422 136.406 19.9609C136.224 20.1797 136.07 20.4323 135.945 20.7188C135.82 21 135.737 21.2969 135.695 21.6094H136.172C136.5 21.6094 136.81 21.5781 137.102 21.5156C137.393 21.4479 137.648 21.3542 137.867 21.2344C138.091 21.1094 138.268 20.9609 138.398 20.7891C138.529 20.612 138.594 20.4115 138.594 20.1875C138.594 20.0885 138.578 19.9844 138.547 19.875C138.516 19.7604 138.464 19.6562 138.391 19.5625C138.323 19.4688 138.232 19.3932 138.117 19.3359C138.003 19.2734 137.865 19.2422 137.703 19.2422ZM142.391 23.7969L142.547 23.7109C142.932 23.9557 143.326 24.1458 143.727 24.2812C144.133 24.4115 144.523 24.4766 144.898 24.4766C145.289 24.4766 145.586 24.4062 145.789 24.2656C145.992 24.125 146.094 23.9583 146.094 23.7656C146.094 23.5885 146.008 23.4349 145.836 23.3047C145.664 23.1745 145.448 23.0495 145.188 22.9297C144.932 22.8047 144.654 22.6771 144.352 22.5469C144.049 22.4115 143.768 22.2474 143.508 22.0547C143.253 21.862 143.039 21.6328 142.867 21.3672C142.695 21.1016 142.609 20.7734 142.609 20.3828C142.609 19.9974 142.701 19.6354 142.883 19.2969C143.07 18.9531 143.339 18.6536 143.688 18.3984C144.042 18.138 144.471 17.9349 144.977 17.7891C145.487 17.638 146.065 17.5625 146.711 17.5625C147.112 17.5625 147.505 17.5938 147.891 17.6562C148.281 17.7135 148.625 17.7969 148.922 17.9062L148.328 19.6719L148.164 19.7578C147.857 19.5859 147.544 19.4583 147.227 19.375C146.909 19.2865 146.607 19.2422 146.32 19.2422C146.107 19.2422 145.924 19.2656 145.773 19.3125C145.622 19.3542 145.497 19.4115 145.398 19.4844C145.305 19.5521 145.234 19.6302 145.188 19.7188C145.141 19.8073 145.117 19.8958 145.117 19.9844C145.117 20.1719 145.203 20.3307 145.375 20.4609C145.547 20.5911 145.763 20.7161 146.023 20.8359C146.284 20.9557 146.565 21.0807 146.867 21.2109C147.169 21.3411 147.451 21.5 147.711 21.6875C147.971 21.8698 148.188 22.0911 148.359 22.3516C148.531 22.612 148.617 22.9297 148.617 23.3047C148.617 23.6484 148.534 23.9922 148.367 24.3359C148.206 24.6745 147.958 24.9792 147.625 25.25C147.297 25.5208 146.883 25.7396 146.383 25.9062C145.888 26.0729 145.307 26.1562 144.641 26.1562C144.151 26.1562 143.656 26.1068 143.156 26.0078C142.656 25.9089 142.203 25.7604 141.797 25.5625L142.391 23.7969Z" fill="white"/>
</g>
<defs>
<filter id="filter0_d_1252_2775" x="11.9219" y="13.4844" width="141" height="20.6719" filterUnits="userSpaceOnUse" color-interpolation-filters="sRGB">
<feFlood flood-opacity="0" result="BackgroundImageFix"/>
<feColorMatrix in="SourceAlpha" type="matrix" values="0 0 0 0 0 0 0 0 0 0 0 0 0 0 0 0 0 0 127 0" result="hardAlpha"/>
<feOffset dy="4"/>
<feGaussianBlur stdDeviation="2"/>
<feComposite in2="hardAlpha" operator="out"/>
<feColorMatrix type="matrix" values="0 0 0 0 0 0 0 0 0 0 0 0 0 0 0 0 0 0 0.25 0"/>
<feBlend mode="normal" in2="BackgroundImageFix" result="effect1_dropShadow_1252_2775"/>
<feBlend mode="normal" in="SourceGraphic" in2="effect1_dropShadow_1252_2775" result="shape"/>
</filter>
</defs>
</svg>
