<svg width="29" height="29" viewBox="0 0 29 29" fill="none" xmlns="http://www.w3.org/2000/svg">
<g clip-path="url(#clip0_1245_2027)">
<path d="M20.5417 0C20.2212 0 19.9139 0.127306 19.6872 0.353913C19.4606 0.580519 19.3333 0.887863 19.3333 1.20833C19.3333 4.77171 16.2122 6.04167 13.2917 6.04167H4.83333C3.55145 6.04167 2.32208 6.55089 1.41565 7.45732C0.509225 8.36374 0 9.59312 0 10.875L0 13.2917C0.0026392 14.0151 0.168516 14.7287 0.48527 15.3791C0.802023 16.0296 1.26149 16.6002 1.82942 17.0484L6.14558 26.6812C6.45255 27.3713 6.95296 27.9576 7.58625 28.3691C8.21953 28.7806 8.95853 28.9998 9.71379 29C10.3147 28.9996 10.906 28.8489 11.4338 28.5617C11.9616 28.2745 12.4092 27.8598 12.7359 27.3554C13.0625 26.851 13.2579 26.273 13.3041 25.6738C13.3503 25.0747 13.2459 24.4735 13.0005 23.925L10.3421 18.125H13.2917C16.2122 18.125 19.3333 19.395 19.3333 22.9583C19.3333 23.2788 19.4606 23.5861 19.6872 23.8128C19.9139 24.0394 20.2212 24.1667 20.5417 24.1667C20.8621 24.1667 21.1695 24.0394 21.3961 23.8128C21.6227 23.5861 21.75 23.2788 21.75 22.9583V1.20833C21.75 0.887863 21.6227 0.580519 21.3961 0.353913C21.1695 0.127306 20.8621 0 20.5417 0V0ZM10.7989 24.9146C10.8789 25.0954 10.9126 25.2932 10.8968 25.4903C10.881 25.6873 10.8163 25.8773 10.7086 26.0431C10.6008 26.2088 10.4534 26.345 10.2797 26.4393C10.106 26.5337 9.91147 26.5832 9.71379 26.5833C9.42548 26.5831 9.14342 26.4992 8.9019 26.3418C8.66037 26.1843 8.46975 25.9601 8.35321 25.6964L4.96021 18.125H7.68379L10.7989 24.9146ZM19.3333 17.6417C17.607 16.3115 15.4695 15.6275 13.2917 15.7083H4.83333C4.19239 15.7083 3.57771 15.4537 3.12449 15.0005C2.67128 14.5473 2.41667 13.9326 2.41667 13.2917V10.875C2.41667 10.2341 2.67128 9.61937 3.12449 9.16616C3.57771 8.71295 4.19239 8.45833 4.83333 8.45833H13.2917C15.4688 8.54086 17.6062 7.85903 19.3333 6.53104V17.6417ZM28.8792 18.6712C28.8083 18.8132 28.7101 18.9399 28.5902 19.044C28.4704 19.1481 28.3312 19.2276 28.1806 19.2779C28.03 19.3281 27.8709 19.3482 27.7126 19.337C27.5542 19.3258 27.3996 19.2835 27.2576 19.2125L24.8409 18.0042C24.5541 17.8609 24.3359 17.6096 24.2344 17.3055C24.1329 17.0014 24.1563 16.6694 24.2996 16.3826C24.4428 16.0958 24.6942 15.8776 24.9983 15.7761C25.3024 15.6746 25.6343 15.698 25.9212 15.8413L28.3378 17.0496C28.6232 17.1927 28.8403 17.443 28.9417 17.7457C29.0431 18.0484 29.0207 18.3789 28.8792 18.6651V18.6712ZM24.2996 7.79617C24.2286 7.65416 24.1863 7.49955 24.1751 7.34119C24.1638 7.18282 24.1839 7.02379 24.2342 6.8732C24.2845 6.7226 24.3639 6.58339 24.468 6.46352C24.5721 6.34364 24.6989 6.24546 24.8409 6.17458L27.2576 4.96625C27.5444 4.823 27.8764 4.79956 28.1805 4.90108C28.4846 5.0026 28.7359 5.22076 28.8792 5.50758C29.0224 5.7944 29.0459 6.12638 28.9443 6.43049C28.8428 6.7346 28.6247 6.98592 28.3378 7.12917L25.9212 8.3375C25.7792 8.4085 25.6246 8.45081 25.4662 8.46203C25.3078 8.47325 25.1488 8.45315 24.9982 8.40287C24.8476 8.3526 24.7084 8.27314 24.5885 8.16904C24.4686 8.06494 24.3705 7.93823 24.2996 7.79617ZM24.1667 12.0833C24.1667 11.7629 24.294 11.4555 24.5206 11.2289C24.7472 11.0023 25.0545 10.875 25.375 10.875H27.7917C28.1121 10.875 28.4195 11.0023 28.6461 11.2289C28.8727 11.4555 29 11.7629 29 12.0833C29 12.4038 28.8727 12.7111 28.6461 12.9378C28.4195 13.1644 28.1121 13.2917 27.7917 13.2917H25.375C25.0545 13.2917 24.7472 13.1644 24.5206 12.9378C24.294 12.7111 24.1667 12.4038 24.1667 12.0833Z" fill="white"/>
</g>
<defs>
<clipPath id="clip0_1245_2027">
<rect width="29" height="29" fill="white"/>
</clipPath>
</defs>
</svg>
