<svg width="35" height="35" viewBox="0 0 35 35" fill="none" xmlns="http://www.w3.org/2000/svg">
<g clip-path="url(#clip0_951_1054)">
<path d="M33.0625 15.8121H1.4375C0.643591 15.8121 0 16.4557 0 17.2496C0 18.0435 0.643591 18.6871 1.4375 18.6871H33.0625C33.8564 18.6871 34.5 18.0435 34.5 17.2496C34.5 16.4557 33.8564 15.8121 33.0625 15.8121Z" fill="#374957"/>
<path d="M33.0625 5.75043H1.4375C0.643591 5.75043 0 6.39402 0 7.18792C0 7.98183 0.643591 8.62542 1.4375 8.62542H33.0625C33.8564 8.62542 34.5 7.98183 34.5 7.18792C34.5 6.39402 33.8564 5.75043 33.0625 5.75043Z" fill="#374957"/>
<path d="M33.0625 25.875H1.4375C0.643591 25.875 0 26.5186 0 27.3125C0 28.1064 0.643591 28.75 1.4375 28.75H33.0625C33.8564 28.75 34.5 28.1064 34.5 27.3125C34.5 26.5186 33.8564 25.875 33.0625 25.875Z" fill="#374957"/>
</g>
<defs>
<clipPath id="clip0_951_1054">
<rect width="34.5" height="34.5" fill="white"/>
</clipPath>
</defs>
</svg>
