<svg width="25" height="25" viewBox="0 0 25 25" fill="none" xmlns="http://www.w3.org/2000/svg">
<g clip-path="url(#clip0_1245_1998)">
<path d="M20.8334 8.33332C19.7284 8.33332 18.6686 7.89433 17.8872 7.11293C17.1058 6.33153 16.6668 5.27172 16.6668 4.16665C16.6668 3.06158 17.1058 2.00177 17.8872 1.22037C18.6686 0.438972 19.7284 -1.52588e-05 20.8334 -1.52588e-05C21.9385 -1.52588e-05 22.9983 0.438972 23.7797 1.22037C24.5611 2.00177 25.0001 3.06158 25.0001 4.16665C25.0001 5.27172 24.5611 6.33153 23.7797 7.11293C22.9983 7.89433 21.9385 8.33332 20.8334 8.33332ZM20.8334 2.08332C20.2809 2.08332 19.751 2.30281 19.3603 2.69351C18.9696 3.08421 18.7501 3.61412 18.7501 4.16665C18.7501 4.71919 18.9696 5.24909 19.3603 5.63979C19.751 6.03049 20.2809 6.24998 20.8334 6.24998C21.386 6.24998 21.9159 6.03049 22.3066 5.63979C22.6973 5.24909 22.9168 4.71919 22.9168 4.16665C22.9168 3.61412 22.6973 3.08421 22.3066 2.69351C21.9159 2.30281 21.386 2.08332 20.8334 2.08332ZM22.3459 25H13.1136C12.6466 25.0041 12.1868 24.8849 11.7806 24.6545C11.3744 24.424 11.0362 24.0905 10.8001 23.6875C10.5688 23.2991 10.4441 22.8566 10.4388 22.4046C10.4335 21.9526 10.5477 21.5072 10.7699 21.1135L15.3907 12.8229C15.6287 12.412 15.9704 12.0709 16.3818 11.8337C16.7932 11.5966 17.2596 11.4717 17.7345 11.4717C18.2093 11.4717 18.6758 11.5966 19.0871 11.8337C19.4985 12.0709 19.8403 12.412 20.0782 12.8229L24.6876 21.1073C24.9102 21.5015 25.0247 21.9475 25.0196 22.4003C25.0145 22.853 24.8899 23.2963 24.6584 23.6854C24.4225 24.0884 24.0845 24.4221 23.6785 24.6529C23.2725 24.8837 22.8129 25.0034 22.3459 25ZM17.7324 13.5417C17.627 13.5392 17.523 13.5653 17.4313 13.6172C17.3396 13.6691 17.2637 13.7448 17.2116 13.8364L12.5907 22.1271C12.5461 22.204 12.5231 22.2916 12.5242 22.3805C12.5253 22.4695 12.5504 22.5565 12.597 22.6323C12.6503 22.722 12.7268 22.7958 12.8184 22.8458C12.9101 22.8958 13.0135 22.9203 13.1178 22.9167H22.3501C22.4546 22.9198 22.558 22.8948 22.6496 22.8444C22.7412 22.7941 22.8176 22.7201 22.8709 22.6302C22.9167 22.5531 22.9408 22.4651 22.9408 22.3755C22.9408 22.2859 22.9167 22.1979 22.8709 22.1208L18.2543 13.8375C18.2024 13.7454 18.1264 13.6692 18.0344 13.617C17.9425 13.5649 17.8381 13.5388 17.7324 13.5417ZM8.33343 23.9583C8.33343 23.6821 8.22368 23.4171 8.02833 23.2217C7.83298 23.0264 7.56803 22.9167 7.29176 22.9167H3.48968C3.24607 22.9165 3.00669 22.853 2.79501 22.7325C2.58334 22.6119 2.40664 22.4383 2.28227 22.2289C2.15789 22.0194 2.0901 21.7812 2.08556 21.5377C2.08102 21.2941 2.13987 21.0535 2.25635 20.8396L9.18551 8.02707C9.30403 7.80374 9.48143 7.61714 9.69848 7.48749C9.91554 7.35785 10.1639 7.29012 10.4168 7.29165C10.6698 7.28958 10.9186 7.35707 11.1359 7.48677C11.3532 7.61646 11.5307 7.80336 11.6491 8.02707L12.9272 10.3885C12.9923 10.5089 13.0805 10.6153 13.1867 10.7016C13.2929 10.7879 13.4151 10.8524 13.5463 10.8915C13.6774 10.9306 13.815 10.9434 13.9511 10.9293C14.0873 10.9152 14.2193 10.8745 14.3397 10.8094C14.4601 10.7442 14.5664 10.6561 14.6527 10.5498C14.739 10.4436 14.8036 10.3214 14.8426 10.1903C14.8817 10.0591 14.8946 9.92153 14.8805 9.78539C14.8664 9.64926 14.8256 9.51724 14.7605 9.39686L13.4834 7.03644C13.1849 6.48357 12.7424 6.02173 12.2028 5.69985C11.6632 5.37797 11.0466 5.20803 10.4183 5.20803C9.79002 5.20803 9.17341 5.37797 8.63381 5.69985C8.09422 6.02173 7.65173 6.48357 7.35322 7.03644L0.423014 19.8489C0.135622 20.3804 -0.0089116 20.9773 0.00355041 21.5814C0.0160124 22.1854 0.185043 22.7759 0.49411 23.295C0.803176 23.8141 1.24169 24.2442 1.76677 24.543C2.29185 24.8419 2.88551 24.9993 3.48968 25H7.29176C7.56803 25 7.83298 24.8902 8.02833 24.6949C8.22368 24.4995 8.33343 24.2346 8.33343 23.9583Z" fill="white"/>
</g>
<defs>
<clipPath id="clip0_1245_1998">
<rect width="25" height="25" fill="white"/>
</clipPath>
</defs>
</svg>
