<svg width="22" height="22" viewBox="0 0 22 22" fill="none" xmlns="http://www.w3.org/2000/svg">
<path d="M20.6745 0.846109C20.2607 0.500972 19.7755 0.251843 19.2539 0.116641C18.7322 -0.01856 18.1871 -0.0364723 17.6577 0.064193L9.23908 1.64269C8.18834 1.83961 7.23948 2.39763 6.55668 3.2202C5.87388 4.04277 5.5001 5.07815 5.5 6.14718V15.1763C4.9451 14.8464 4.31223 14.6705 3.66667 14.6667C2.94147 14.6667 2.23256 14.8817 1.62958 15.2846C1.0266 15.6875 0.556631 16.2602 0.27911 16.9302C0.00158869 17.6002 -0.0710235 18.3374 0.0704556 19.0487C0.211935 19.7599 0.561151 20.4133 1.07394 20.9261C1.58674 21.4388 2.24007 21.7881 2.95134 21.9295C3.6626 22.071 4.39984 21.9984 5.06984 21.7209C5.73983 21.4434 6.31249 20.9734 6.71539 20.3704C7.11829 19.7674 7.33333 19.0585 7.33333 18.3333V9.96968C7.3333 9.54195 7.48283 9.12767 7.75603 8.79856C8.02923 8.46945 8.40891 8.24622 8.82933 8.16752L19.0804 6.24252C19.2134 6.21748 19.3503 6.22219 19.4812 6.25632C19.6121 6.29044 19.7339 6.35313 19.8377 6.43988C19.9416 6.52664 20.0249 6.6353 20.0818 6.75808C20.1387 6.88086 20.1676 7.01471 20.1667 7.15002V12.43C19.6121 12.0988 18.9792 11.9216 18.3333 11.9167C17.6081 11.9167 16.8992 12.1317 16.2962 12.5346C15.6933 12.9375 15.2233 13.5102 14.9458 14.1802C14.6683 14.8502 14.5956 15.5874 14.7371 16.2987C14.8786 17.0099 15.2278 17.6633 15.7406 18.1761C16.2534 18.6889 16.9067 19.0381 17.618 19.1795C18.3293 19.321 19.0665 19.2484 19.7365 18.9709C20.4065 18.6934 20.9792 18.2234 21.3821 17.6204C21.785 17.0174 22 16.3085 22 15.5833V3.66669C22.0006 3.12791 21.8821 2.59565 21.653 2.10803C21.4238 1.62041 21.0897 1.18948 20.6745 0.846109ZM3.66667 20.1667C3.30407 20.1667 2.94961 20.0591 2.64812 19.8577C2.34663 19.6562 2.11165 19.3699 1.97289 19.0349C1.83413 18.6999 1.79782 18.3313 1.86856 17.9757C1.9393 17.62 2.11391 17.2934 2.37031 17.037C2.6267 16.7806 2.95337 16.606 3.309 16.5352C3.66463 16.4645 4.03326 16.5008 4.36825 16.6396C4.70325 16.7783 4.98958 17.0133 5.19103 17.3148C5.39248 17.6163 5.5 17.9707 5.5 18.3333C5.5 18.8196 5.30685 19.2859 4.96303 19.6297C4.61921 19.9735 4.1529 20.1667 3.66667 20.1667ZM18.7431 4.44402L8.49108 6.36535C8.08346 6.44302 7.69199 6.58932 7.33333 6.79802V6.14718C7.33325 5.50572 7.55741 4.88441 7.96702 4.39076C8.37664 3.89711 8.94594 3.56218 9.57642 3.44394L17.996 1.86544C18.2607 1.81589 18.533 1.82526 18.7937 1.89287C19.0543 1.96048 19.2969 2.08468 19.5041 2.25663C19.7113 2.42858 19.8781 2.64407 19.9926 2.88777C20.1071 3.13148 20.1665 3.39742 20.1667 3.66669V4.56869C19.7119 4.40045 19.2202 4.3574 18.7431 4.44402ZM18.3333 17.4167C17.9707 17.4167 17.6163 17.3091 17.3148 17.1077C17.0133 16.9062 16.7783 16.6199 16.6396 16.2849C16.5008 15.9499 16.4645 15.5813 16.5352 15.2257C16.606 14.87 16.7806 14.5434 17.037 14.287C17.2934 14.0306 17.62 13.856 17.9757 13.7852C18.3313 13.7145 18.6999 13.7508 19.0349 13.8896C19.3699 14.0283 19.6562 14.2633 19.8577 14.5648C20.0591 14.8663 20.1667 15.2207 20.1667 15.5833C20.1667 16.0696 19.9735 16.5359 19.6297 16.8797C19.2859 17.2235 18.8196 17.4167 18.3333 17.4167Z" fill="#90BBD1"/>
</svg>
