<svg width="35" height="32" viewBox="0 0 35 32" fill="none" xmlns="http://www.w3.org/2000/svg">
<path d="M34.0791 0.381951C33.8095 0.137388 33.444 0 33.0628 0C32.6816 0 32.316 0.137388 32.0465 0.381951L17.25 13.8095L2.45355 0.381951C2.18397 0.137388 1.8184 0 1.43722 0C1.05604 0 0.690464 0.137388 0.420888 0.381951C0.151394 0.626587 0 0.958342 0 1.30426C0 1.65017 0.151394 1.98193 0.420888 2.22657L15.2173 15.6542L0.420888 29.0818C0.151394 29.3264 0 29.6582 0 30.0041C0 30.35 0.151394 30.6817 0.420888 30.9264C0.690464 31.1709 1.05604 31.3083 1.43722 31.3083C1.8184 31.3083 2.18397 31.1709 2.45355 30.9264L17.25 17.4988L32.0465 30.9264C32.316 31.1709 32.6816 31.3083 33.0628 31.3083C33.444 31.3083 33.8095 31.1709 34.0791 30.9264C34.3486 30.6817 34.5 30.35 34.5 30.0041C34.5 29.6582 34.3486 29.3264 34.0791 29.0818L19.2827 15.6542L34.0791 2.22657C34.3486 1.98193 34.5 1.65017 34.5 1.30426C34.5 0.958342 34.3486 0.626587 34.0791 0.381951Z" fill="black"/>
</svg>
