<svg width="26" height="26" viewBox="0 0 26 26" fill="none" xmlns="http://www.w3.org/2000/svg">
<g clip-path="url(#clip0_1245_2024)">
<path d="M13 0C10.4288 0 7.91543 0.762437 5.77759 2.1909C3.63975 3.61935 1.97351 5.64968 0.989572 8.02512C0.00563272 10.4006 -0.251811 13.0144 0.249797 15.5362C0.751405 18.0579 1.98954 20.3743 3.80762 22.1924C5.6257 24.0105 7.94208 25.2486 10.4638 25.7502C12.9856 26.2518 15.5995 25.9944 17.9749 25.0104C20.3503 24.0265 22.3807 22.3603 23.8091 20.2224C25.2376 18.0846 26 15.5712 26 13C25.9963 9.55333 24.6254 6.2489 22.1883 3.81173C19.7511 1.37456 16.4467 0.00372784 13 0V0ZM23.8333 13C23.8346 15.123 23.2082 17.199 22.0328 18.967L20.7415 17.6746C20.6402 17.5731 20.5834 17.4356 20.5833 17.2922V16.25C20.5833 15.388 20.2409 14.5614 19.6314 13.9519C19.0219 13.3424 18.1953 13 17.3333 13H14.0833C13.796 13 13.5205 12.8859 13.3173 12.6827C13.1141 12.4795 13 12.204 13 11.9167V11.375C13 11.2313 13.0571 11.0936 13.1587 10.992C13.2602 10.8904 13.398 10.8333 13.5417 10.8333C14.26 10.8333 14.9488 10.548 15.4568 10.0401C15.9647 9.53217 16.25 8.8433 16.25 8.125V7.04167C16.25 6.89801 16.3071 6.76023 16.4087 6.65865C16.5102 6.55707 16.648 6.5 16.7917 6.5H18.2856C19.0032 6.49796 19.691 6.21301 20.1998 5.707L20.6083 5.29858C21.63 6.304 22.4414 7.50278 22.9952 8.82502C23.5489 10.1473 23.8338 11.5665 23.8333 13ZM2.21976 14.0433L5.64092 17.4644C5.94198 17.7674 6.30022 18.0076 6.69484 18.1711C7.08946 18.3346 7.51262 18.418 7.93976 18.4167H10.8333C11.1207 18.4167 11.3962 18.5308 11.5994 18.734C11.8025 18.9371 11.9167 19.2127 11.9167 19.5V23.7781C9.42522 23.5238 7.09843 22.4154 5.33101 20.6411C3.56359 18.8668 2.46435 16.5357 2.21976 14.0433ZM14.0833 23.7781V19.5C14.0833 18.6381 13.7409 17.8114 13.1314 17.2019C12.5219 16.5924 11.6953 16.25 10.8333 16.25H7.93976C7.79732 16.2501 7.65626 16.2221 7.52465 16.1677C7.39304 16.1132 7.27346 16.0333 7.17276 15.9326L2.34326 11.1031C2.65328 9.34072 3.39597 7.68289 4.5047 6.27833C5.61342 4.87377 7.05349 3.76643 8.6957 3.05567C10.3379 2.3449 12.1309 2.05293 13.9138 2.20597C15.6966 2.35901 17.4136 2.95226 18.9107 3.9325L18.668 4.17517C18.566 4.27573 18.4288 4.33249 18.2856 4.33333H16.7917C16.0734 4.33333 15.3845 4.61868 14.8766 5.12659C14.3687 5.6345 14.0833 6.32337 14.0833 7.04167V8.125C14.0833 8.26866 14.0263 8.40644 13.9247 8.50802C13.8231 8.6096 13.6853 8.66667 13.5417 8.66667C12.8234 8.66667 12.1345 8.95201 11.6266 9.45992C11.1187 9.96783 10.8333 10.6567 10.8333 11.375V11.9167C10.8333 12.7786 11.1757 13.6053 11.7852 14.2148C12.3947 14.8243 13.2214 15.1667 14.0833 15.1667H17.3333C17.6207 15.1667 17.8962 15.2808 18.0994 15.484C18.3025 15.6871 18.4167 15.9627 18.4167 16.25V17.2922C18.4187 18.0098 18.7037 18.6976 19.2097 19.2064L20.6581 20.6548C18.8938 22.4252 16.5703 23.529 14.0833 23.7781Z" fill="#90BBD1"/>
</g>
<defs>
<clipPath id="clip0_1245_2024">
<rect width="26" height="26" fill="white"/>
</clipPath>
</defs>
</svg>
